# Exported from ProBuilder
# http://www.procore3d.com/probuilder
# 15/08/2024 10:02:39

mtllib ./Drawer.mtl
o Drawer

g Drawer
v -15.67469 9.64 12.7326
v -16.17008 9.64 12.80029
v -15.607 9.64 13.228
v -16.1024 9.64 13.29568
v -15.607 9.820001 13.228
v -15.607 9.64 13.228
v -16.1024 9.64 13.29568
v -16.1024 9.820001 13.29568
v -15.97855 9.820001 13.27876
v -15.8547 9.820001 13.26184
v -15.73085 9.820001 13.24492
v -16.1024 9.820001 13.29568
v -16.1024 9.64 13.29568
v -16.17008 9.64 12.80029
v -16.17008 9.820001 12.80029
v -16.15316 9.820001 12.89061
v -16.13624 9.820001 13.04799
v -16.11932 9.820001 13.17183
v -15.92238 9.820001 12.76644
v -16.04623 9.820001 12.78337
v -16.17008 9.820001 12.80029
v -16.17008 9.64 12.80029
v -15.67469 9.64 12.7326
v -15.67469 9.820001 12.7326
v -15.79853 9.820001 12.74952
v -15.64084 9.820001 12.9803
v -15.65776 9.820001 12.85645
v -15.67469 9.820001 12.7326
v -15.67469 9.64 12.7326
v -15.607 9.64 13.228
v -15.607 9.820001 13.228
v -15.62392 9.820001 13.10415
v -15.88854 9.727536 13.01414
v -15.66547 9.727536 12.99722
v -15.64854 9.727536 13.19199
v -15.87162 9.727536 13.22714
v -15.66547 9.820001 12.99722
v -15.64084 9.820001 12.9803
v -15.62392 9.820001 13.10415
v -15.64854 9.820001 13.19199
v -15.62392 9.820001 13.10415
v -15.607 9.820001 13.228
v -15.73085 9.820001 13.24492
v -15.64854 9.820001 13.19199
v -15.73085 9.820001 13.24492
v -15.8547 9.820001 13.26184
v -15.87162 9.820001 13.22714
v -15.64854 9.820001 13.19199
v -16.13624 9.820001 13.04799
v -16.09347 9.820001 13.0476
v -16.07655 9.820001 13.24237
v -16.11932 9.820001 13.17183
v -16.09347 9.727536 13.0476
v -15.88854 9.727536 13.01414
v -15.87162 9.727536 13.22714
v -16.07655 9.727536 13.24237
v -15.87162 9.820001 13.22714
v -15.8547 9.820001 13.26184
v -15.97855 9.820001 13.27876
v -16.07655 9.820001 13.24237
v -15.97855 9.820001 13.27876
v -16.1024 9.820001 13.29568
v -16.11932 9.820001 13.17183
v -16.07655 9.820001 13.24237
v -16.17008 9.820001 12.80029
v -16.04623 9.820001 12.78337
v -16.12333 9.820001 12.82436
v -16.15316 9.820001 12.89061
v -16.04623 9.820001 12.78337
v -15.92238 9.820001 12.76644
v -15.9184 9.820001 12.7909
v -16.12333 9.820001 12.82436
v -15.9184 9.727536 12.7909
v -15.88854 9.727536 13.01414
v -16.09347 9.727536 13.0476
v -16.12333 9.727536 12.82436
v -16.09347 9.820001 13.0476
v -16.13624 9.820001 13.04799
v -16.15316 9.820001 12.89061
v -16.12333 9.820001 12.82436
v -15.92238 9.820001 12.76644
v -15.79853 9.820001 12.74952
v -15.69532 9.820001 12.77398
v -15.9184 9.820001 12.7909
v -15.79853 9.820001 12.74952
v -15.67469 9.820001 12.7326
v -15.65776 9.820001 12.85645
v -15.69532 9.820001 12.77398
v -15.65776 9.820001 12.85645
v -15.64084 9.820001 12.9803
v -15.66547 9.820001 12.99722
v -15.69532 9.820001 12.77398
v -15.66547 9.727536 12.99722
v -15.88854 9.727536 13.01414
v -15.9184 9.727536 12.7909
v -15.69532 9.727536 12.77398
v -15.9184 9.820001 12.7909
v -15.69532 9.820001 12.77398
v -15.9184 9.727536 12.7909
v -15.69532 9.727536 12.77398
v -15.64854 9.820001 13.19199
v -15.87162 9.820001 13.22714
v -15.64854 9.727536 13.19199
v -15.87162 9.727536 13.22714
v -16.07655 9.820001 13.24237
v -16.09347 9.820001 13.0476
v -16.07655 9.727536 13.24237
v -16.09347 9.727536 13.0476
v -15.87162 9.820001 13.22714
v -16.07655 9.820001 13.24237
v -15.87162 9.727536 13.22714
v -16.07655 9.727536 13.24237
v -16.12333 9.820001 12.82436
v -15.9184 9.820001 12.7909
v -16.12333 9.727536 12.82436
v -15.9184 9.727536 12.7909
v -15.66547 9.820001 12.99722
v -15.64854 9.820001 13.19199
v -15.66547 9.727536 12.99722
v -15.64854 9.727536 13.19199
v -16.09347 9.820001 13.0476
v -16.12333 9.820001 12.82436
v -16.09347 9.727536 13.0476
v -16.12333 9.727536 12.82436
v -15.69532 9.820001 12.77398
v -15.66547 9.820001 12.99722
v -15.69532 9.727536 12.77398
v -15.66547 9.727536 12.99722

vn 0 -1 0
vn 0 -1 0
vn 0 -1 0
vn 0 -1 0
vn 0.1353696 0 0.9907952
vn 0.1353696 0 0.9907952
vn 0.1353696 0 0.9907952
vn 0.1353696 0 0.9907952
vn 0.1353696 0 0.9907952
vn 0.1353696 0 0.9907952
vn 0.1353696 0 0.9907952
vn -0.9907952 0 0.1353696
vn -0.9907952 0 0.1353696
vn -0.9907601 0.008403296 0.1353648
vn -0.9829019 0 0.1841301
vn -0.9904805 0.02520277 0.1353266
vn -0.9915308 0.008046822 0.1296226
vn -0.9907952 0 0.1353696
vn -0.1353696 0 -0.9907952
vn -0.1353696 0 -0.9907952
vn -0.1353696 0 -0.9907952
vn -0.1353696 0 -0.9907952
vn -0.1353696 0 -0.9907952
vn -0.1353696 0 -0.9907952
vn -0.1353696 0 -0.9907952
vn 0.9907952 0 -0.1353696
vn 0.9907952 0 -0.1353696
vn 0.9907952 0 -0.1353696
vn 0.9907952 0 -0.1353696
vn 0.9907952 0 -0.1353696
vn 0.9907952 0 -0.1353696
vn 0.9907952 0 -0.1353696
vn 0 1 0
vn 0 1 0
vn 0 1 0
vn 0 1 0
vn 0 1 0
vn 0 1 0
vn 0 1 0
vn 0 1 0
vn 0 1 0
vn 0 0.9999999 0
vn 0 1 0
vn 0 0.9999999 0
vn 0 1 0
vn 0 1 0
vn 0 1 0
vn 0 1 0
vn 0 1 0
vn 0 1 0
vn 0 1 0
vn 0 1 0
vn 0 1 0
vn 0 1 0
vn 0 1 0
vn 0 1 0
vn 0 1 0
vn 0 1 0
vn 0 0.9999999 0
vn 0 1 0
vn 0 1 0
vn 0 1 0
vn 0 1 0
vn 0 -1 0
vn 0 0.9999999 0
vn 0 0.9999999 0
vn 0 0.9999999 0
vn 0 1 0
vn 0 1 0
vn 0 1 0
vn 0 1 0
vn 0 1 0
vn 0 0.9999999 0
vn 0 1 0
vn 0 1 0
vn 0 1 0
vn 0 1 0
vn 0 1 0
vn 0 1 0
vn 0 1 0
vn 0 1 0
vn 0 1 0
vn 0 1 0
vn 0 1 0
vn 0 1 0
vn 0 1 0
vn 0 1 0
vn 0 -1 0
vn 0 1 0
vn 0 1 0
vn 0 0.9999999 0
vn 0 1 0
vn 0 1 0
vn 0 1 0
vn 0 1 0
vn 0 1 0
vn 0.07563561 0 0.9971355
vn 0.07563561 0 0.9971355
vn 0.07563561 0 0.9971355
vn 0.07563561 0 0.9971355
vn -0.1556437 0 -0.9878134
vn -0.1556437 0 -0.9878134
vn -0.1556437 0 -0.9878134
vn -0.1556437 0 -0.9878134
vn 0.9962472 0 -0.08655387
vn 0.9962472 0 -0.08655387
vn 0.9962472 0 -0.08655387
vn 0.9962472 0 -0.08655387
vn -0.07411082 0 -0.99725
vn -0.07411082 0 -0.99725
vn -0.07411082 0 -0.99725
vn -0.07411082 0 -0.99725
vn 0.1611263 0 0.9869338
vn 0.1611263 0 0.9869338
vn 0.1611263 0 0.9869338
vn 0.1611263 0 0.9869338
vn -0.9962472 0 0.08655376
vn -0.9962472 0 0.08655376
vn -0.9962472 0 0.08655376
vn -0.9962472 0 0.08655376
vn 0.9911768 0 -0.1325464
vn 0.9911768 0 -0.1325464
vn 0.9911768 0 -0.1325464
vn 0.9911768 0 -0.1325464
vn -0.9911766 0 0.132548
vn -0.9911766 0 0.132548
vn -0.9911766 0 0.132548
vn -0.9911766 0 0.132548

vt 0 -0.5
vt -0.5 -0.5
vt 0 0
vt -0.5 0
vt 0 0.18
vt 0 0
vt -0.5 0
vt -0.5 0.18
vt -0.375 0.18
vt -0.25 0.18
vt -0.125 0.18
vt 0.001184115 0.1775205
vt 0.001184115 -0.002477334
vt -0.4988145 -0.002483201
vt -0.4988145 0.1775146
vt -0.4070396 0.1775382
vt -0.2488152 0.1775175
vt -0.1238155 0.177519
vt 0.25 0.18
vt 0.375 0.18
vt 0.5 0.18
vt 0.5 0
vt 0 0
vt 0 0.18
vt 0.125 0.18
vt 0.25 0.18
vt 0.375 0.18
vt 0.5 0.18
vt 0.5 0
vt 0 0
vt 0 0.18
vt 0.125 0.18
vt 0.25 -0.25
vt 0.02668643 -0.2365677
vt 0.03628634 -0.04130426
vt 0.2620674 -0.03667679
vt 0.02668643 -0.2365677
vt -2.970343E-15 -0.25
vt -2.970343E-15 -0.125
vt 0.03628634 -0.04130426
vt -2.970343E-15 -0.125
vt -2.970343E-15 -5.64622E-15
vt 0.125 -5.64622E-15
vt 0.03628634 -0.04130426
vt 0.125 -5.64622E-15
vt 0.25 -5.64622E-15
vt 0.2620674 -0.03667679
vt 0.03628634 -0.04130426
vt 0.5 -0.25
vt 0.4575726 -0.2445925
vt 0.4671725 -0.04932884
vt 0.5 -0.125
vt 0.4575726 -0.2445925
vt 0.25 -0.25
vt 0.2620674 -0.03667679
vt 0.4671725 -0.04932884
vt 0.2620674 -0.03667679
vt 0.25 -5.64622E-15
vt 0.375 -5.64622E-15
vt 0.4671725 -0.04932884
vt 0.375 -5.64622E-15
vt 0.5 -5.64622E-15
vt 0.5 -0.125
vt 0.4671725 -0.04932884
vt 0.5 -0.5
vt 0.375 -0.5
vt 0.4569309 -0.4698232
vt 0.4954621 -0.4082142
vt 0.375 -0.5
vt 0.25 -0.5
vt 0.2493587 -0.4752306
vt 0.4569309 -0.4698232
vt 0.2493587 -0.4752306
vt 0.25 -0.25
vt 0.4575726 -0.2445925
vt 0.4569309 -0.4698232
vt 0.4575726 -0.2445925
vt 0.5 -0.25
vt 0.4954621 -0.4082142
vt 0.4569309 -0.4698232
vt 0.25 -0.5
vt 0.125 -0.5
vt 0.02604514 -0.4617981
vt 0.2493587 -0.4752306
vt 0.125 -0.5
vt -2.970343E-15 -0.5
vt -2.970343E-15 -0.375
vt 0.02604514 -0.4617981
vt -2.970343E-15 -0.375
vt -2.970343E-15 -0.25
vt 0.02668643 -0.2365677
vt 0.02604514 -0.4617981
vt 0.02668643 -0.2365677
vt 0.25 -0.25
vt 0.2493587 -0.4752306
vt 0.02604514 -0.4617981
vt -0.2774429 0.18
vt -0.05372565 0.18
vt -0.2774429 0.08753556
vt -0.05372565 0.08753556
vt 0.03543235 0.18
vt 0.2612609 0.18
vt 0.03543235 0.08753556
vt 0.2612609 0.08753556
vt 0.02632909 0.18
vt 0.2218286 0.18
vt 0.02632909 0.08753556
vt 0.2218286 0.08753556
vt 0.2638284 0.18
vt 0.4693233 0.18
vt 0.2638284 0.08753556
vt 0.4693233 0.08753556
vt -0.4445407 0.18
vt -0.2368981 0.18
vt -0.4445407 0.08753556
vt -0.2368981 0.08753556
vt -0.2349719 0.18
vt -0.03947261 0.18
vt -0.2349719 0.08753556
vt -0.03947261 0.08753556
vt 0.2432879 0.18
vt 0.4685195 0.18
vt 0.2432879 0.08753556
vt 0.4685195 0.08753556
vt -0.4617221 0.18
vt -0.2364908 0.18
vt -0.4617221 0.08753556
vt -0.2364908 0.08753556

g Drawer_0
usemtl Default_Prototype
f 3/3/3 4/4/4 2/2/2 1/1/1
f 36/36/36 35/35/35 34/34/34 33/33/33
f 40/40/40 39/39/39 38/38/38 37/37/37
f 43/43/43 42/42/42 41/41/41 44/44/44
f 46/46/46 45/45/45 48/48/48 47/47/47
f 52/52/52 51/51/51 50/50/50 49/49/49
f 56/56/56 55/55/55 54/54/54 53/53/53
f 59/59/59 58/58/58 57/57/57 60/60/60
f 62/62/62 61/61/61 64/64/64 63/63/63
f 68/68/68 67/67/67 66/66/66 65/65/65
f 72/72/72 71/71/71 70/70/70 69/69/69
f 75/75/75 74/74/74 73/73/73 76/76/76
f 78/78/78 77/77/77 80/80/80 79/79/79
f 84/84/84 83/83/83 82/82/82 81/81/81
f 88/88/88 87/87/87 86/86/86 85/85/85
f 91/91/91 90/90/90 89/89/89 92/92/92
f 94/94/94 93/93/93 96/96/96 95/95/95
f 99/99/99 100/100/100 98/98/98 97/97/97
f 103/103/103 104/104/104 102/102/102 101/101/101
f 107/107/107 108/108/108 106/106/106 105/105/105
f 111/111/111 112/112/112 110/110/110 109/109/109
f 115/115/115 116/116/116 114/114/114 113/113/113
f 119/119/119 120/120/120 118/118/118 117/117/117
f 123/123/123 124/124/124 122/122/122 121/121/121
f 127/127/127 128/128/128 126/126/126 125/125/125

g Drawer_1
usemtl Default_Prototype
f 11/11/11 6/6/6 5/5/5
f 11/11/11 10/10/10 6/6/6
f 6/6/6 10/10/10 7/7/7
f 7/7/7 10/10/10 9/9/9
f 9/9/9 8/8/8 7/7/7
f 18/18/18 13/13/13 12/12/12
f 18/18/18 17/17/17 13/13/13
f 13/13/13 17/17/17 14/14/14
f 14/14/14 17/17/17 16/16/16
f 16/16/16 15/15/15 14/14/14
f 22/22/22 21/21/21 20/20/20
f 20/20/20 19/19/19 22/22/22
f 22/22/22 19/19/19 23/23/23
f 23/23/23 19/19/19 25/25/25
f 24/24/24 23/23/23 25/25/25
f 29/29/29 28/28/28 27/27/27
f 27/27/27 26/26/26 29/29/29
f 29/29/29 26/26/26 30/30/30
f 30/30/30 26/26/26 32/32/32
f 31/31/31 30/30/30 32/32/32

