# Exported from ProBuilder
# http://www.procore3d.com/probuilder
# 14/08/2024 14:53:58

mtllib ./CabinetPickup.mtl
o CabinetPickup

g CabinetPickup
v -11.464 13.337 11.34991
v -11.464 15.71857 11.358
v -11.944 13.337 11.34991
v -11.944 15.71857 11.358
v -11.464 15.71857 11.358
v -11.464 15.71857 12.608
v -11.944 15.71857 11.358
v -11.944 15.71857 12.608
v -11.464 15.71857 12.608
v -11.464 13.337 12.60495
v -11.944 15.71857 12.608
v -11.944 13.337 12.60495
v -11.944 15.71857 11.358
v -11.944 15.71857 12.608
v -11.944 15.67094 11.3705
v -11.944 15.67096 12.5955
v -11.464 15.71857 12.608
v -11.464 15.71857 11.358
v -11.464 15.67096 12.5955
v -11.464 15.67094 11.3705
v -11.944 13.33702 12.57995
v -11.944 13.337 12.60495
v -11.464 13.337 12.60495
v -11.464 13.33702 12.57995
v -11.704 13.33702 12.57995
v -11.704 13.33702 12.57995
v -11.464 13.33702 12.57995
v -11.464 14.88369 12.58772
v -11.584 14.88369 12.58772
v -11.704 14.88369 12.58772
v -11.704 15.67096 12.5955
v -11.704 14.908 12.59161
v -11.584 14.908 12.59161
v -11.584 15.67096 12.5955
v -11.704 14.91517 11.36765
v -11.704 14.89086 11.36377
v -11.584 14.89086 11.36377
v -11.584 14.91517 11.36765
v -11.584 14.88369 12.58772
v -11.464 14.88369 12.58772
v -11.464 14.908 12.59161
v -11.584 14.908 12.59161
v -11.464 14.908 12.59161
v -11.464 15.67096 12.5955
v -11.584 15.67096 12.5955
v -11.584 14.908 12.59161
v -11.944 14.89086 11.36377
v -11.824 14.89086 11.36377
v -11.824 14.91517 11.36765
v -11.944 14.91517 11.36765
v -11.824 14.89086 11.36377
v -11.704 14.89086 11.36377
v -11.704 14.91517 11.36765
v -11.824 14.91517 11.36765
v -11.704 14.908 12.59161
v -11.704 15.67096 12.5955
v -11.824 15.67096 12.5955
v -11.824 14.908 12.59161
v -11.824 15.67096 12.5955
v -11.944 15.67096 12.5955
v -11.944 14.908 12.59161
v -11.824 14.908 12.59161
v -11.944 13.33702 12.57995
v -11.704 13.33702 12.57995
v -11.704 14.88369 12.58772
v -11.824 14.88369 12.58772
v -11.944 14.88369 12.58772
v -11.944 14.88369 12.58772
v -11.944 14.908 12.59161
v -11.944 15.67096 12.5955
v -11.944 15.71857 12.608
v -11.944 13.337 12.60495
v -11.944 13.33702 12.57995
v -11.464 14.88369 12.58772
v -11.464 13.33702 12.57995
v -11.464 13.337 12.60495
v -11.464 15.71857 12.608
v -11.464 15.67096 12.5955
v -11.464 14.908 12.59161
v -11.464 15.68238 12.59425
v -11.464 14.51541 12.59646
v -11.4788 14.51541 12.59646
v -11.4788 15.68238 12.59425
v -11.464 14.51541 12.59646
v -11.464 13.34844 12.59866
v -11.4788 13.34844 12.59866
v -11.4788 14.51541 12.59646
v -11.4788 13.337 11.37491
v -11.944 13.337 11.37491
v -11.944 14.50397 11.37271
v -11.4788 14.50397 11.37271
v -11.944 14.50397 11.37271
v -11.944 15.67094 11.3705
v -11.4788 15.67094 11.3705
v -11.4788 14.50397 11.37271
v -11.944 13.337 11.34991
v -11.944 13.337 11.37491
v -11.4788 13.337 11.37491
v -11.464 13.337 11.37491
v -11.464 13.337 11.34991
v -11.944 13.337 11.34991
v -11.944 15.71857 11.358
v -11.944 15.67094 11.3705
v -11.944 14.50397 11.37271
v -11.944 13.337 11.37491
v -11.464 15.71857 11.358
v -11.464 13.337 11.34991
v -11.464 13.337 11.37491
v -11.464 14.50397 11.37271
v -11.464 15.67094 11.3705
v -11.944 15.67094 11.3705
v -11.944 15.67096 12.5955
v -11.824 15.67096 12.5955
v -11.704 15.67096 12.5955
v -11.584 15.67096 12.5955
v -11.464 15.67096 12.5955
v -11.464 15.67094 11.3705
v -11.4788 15.67094 11.3705
v -11.4788 13.337 11.37491
v -11.4788 14.50397 11.37271
v -11.4788 13.34844 12.59866
v -11.4788 14.51541 12.59646
v -11.464 14.50397 11.37271
v -11.464 13.337 11.37491
v -11.464 14.51541 12.59646
v -11.464 13.34844 12.59866
v -11.464 13.337 11.37491
v -11.4788 13.337 11.37491
v -11.464 13.34844 12.59866
v -11.4788 13.34844 12.59866
v -11.4788 14.50397 11.37271
v -11.4788 15.67094 11.3705
v -11.4788 14.51541 12.59646
v -11.4788 15.68238 12.59425
v -11.4788 15.67094 11.3705
v -11.464 15.67094 11.3705
v -11.4788 15.68238 12.59425
v -11.464 15.68238 12.59425
v -11.464 15.67094 11.3705
v -11.464 14.50397 11.37271
v -11.464 15.68238 12.59425
v -11.464 14.51541 12.59646
v -11.704 14.88369 12.58772
v -11.584 14.88369 12.58772
v -11.704 14.89086 11.36377
v -11.584 14.89086 11.36377
v -11.584 14.88369 12.58772
v -11.584 14.908 12.59161
v -11.584 14.89086 11.36377
v -11.584 14.91517 11.36765
v -11.944 14.908 12.59161
v -11.944 14.88369 12.58772
v -11.944 14.91517 11.36765
v -11.944 14.89086 11.36377
v -11.584 14.908 12.59161
v -11.704 14.908 12.59161
v -11.584 14.91517 11.36765
v -11.704 14.91517 11.36765
v -11.824 14.88369 12.58772
v -11.704 14.88369 12.58772
v -11.824 14.89086 11.36377
v -11.704 14.89086 11.36377
v -11.704 14.908 12.59161
v -11.824 14.908 12.59161
v -11.704 14.91517 11.36765
v -11.824 14.91517 11.36765
v -11.944 14.88369 12.58772
v -11.824 14.88369 12.58772
v -11.944 14.89086 11.36377
v -11.824 14.89086 11.36377
v -11.824 14.908 12.59161
v -11.944 14.908 12.59161
v -11.824 14.91517 11.36765
v -11.944 14.91517 11.36765

vn 2.980149E-07 0.04108714 -2.49993
vn 2.980149E-07 0.04108714 -2.49993
vn 2.980149E-07 0.04108714 -2.49993
vn 2.980149E-07 0.04108714 -2.49993
vn -1.776357E-14 5.5 1.490116E-07
vn -1.776357E-14 5.5 1.490116E-07
vn -1.776357E-14 5.5 1.490116E-07
vn -1.776357E-14 5.5 1.490116E-07
vn -2.980221E-07 -0.01550495 2.49999
vn -2.980221E-07 -0.01550495 2.49999
vn -2.980221E-07 -0.01550495 2.49999
vn -2.980221E-07 -0.01550495 2.49999
vn -1.6 0 -1.907349E-07
vn -1.6 0 -1.907349E-07
vn -1.6 0 -1.907349E-07
vn -1.6 0 -1.907349E-07
vn 1.6 0 1.907349E-07
vn 1.6 0 1.907349E-07
vn 1.6 0 1.907349E-07
vn 1.6 0 1.907349E-07
vn 1.292157E-10 -5.5 -0.00108394
vn 1.292157E-10 -5.5 -0.00108394
vn 1.292157E-10 -5.5 -0.00108394
vn 1.292157E-10 -5.5 -0.00108394
vn 1.292157E-10 -5.5 -0.00108394
vn 2.98005E-07 0.06082805 -2.499847
vn 7.218343E-07 0.06082844 -2.499847
vn 1.569493E-06 0.06082921 -2.499847
vn 6.15877E-07 0.06082834 -2.499847
vn 2.98005E-07 0.06082805 -2.499847
vn 2.980045E-07 0.06165729 -2.499843
vn 2.980045E-07 0.06165729 -2.499843
vn 2.980045E-07 0.06165729 -2.499843
vn 2.980045E-07 0.06165729 -2.499843
vn 2.811369E-07 1.825073 -2.358347
vn 2.811369E-07 1.825073 -2.358347
vn 2.811369E-07 1.825073 -2.358347
vn 2.811369E-07 1.825073 -2.358347
vn 1.479635E-06 1.825073 -2.358347
vn 8.80388E-07 1.825042 -2.358352
vn 2.81138E-07 1.825011 -2.358357
vn 8.80388E-07 1.825042 -2.358352
vn 2.980045E-07 0.06165729 -2.499843
vn 2.980045E-07 0.06165729 -2.499843
vn 2.980045E-07 0.06165729 -2.499843
vn 2.980045E-07 0.06165729 -2.499843
vn -3.18621E-07 1.825042 -2.358352
vn -9.183773E-07 1.825073 -2.358347
vn -3.18621E-07 1.825042 -2.358352
vn 2.811381E-07 1.82501 -2.358357
vn 2.811368E-07 1.825073 -2.358347
vn 2.811368E-07 1.825073 -2.358347
vn 2.811368E-07 1.825073 -2.358347
vn 2.811368E-07 1.825073 -2.358347
vn 2.980045E-07 0.06165729 -2.499843
vn 2.980045E-07 0.06165729 -2.499843
vn 2.980045E-07 0.06165729 -2.499843
vn 2.980045E-07 0.06165729 -2.499843
vn 2.980045E-07 0.06165729 -2.499843
vn 2.980045E-07 0.06165729 -2.499843
vn 2.980045E-07 0.06165729 -2.499843
vn 2.980045E-07 0.06165729 -2.499843
vn -1.258244E-07 0.06082844 -2.499847
vn 2.98005E-07 0.06082805 -2.499847
vn 2.98005E-07 0.06082805 -2.499847
vn -1.986702E-08 0.06082834 -2.499847
vn -9.734831E-07 0.06082921 -2.499847
vn -1.6 0 -1.907349E-07
vn -1.6 0 -1.907349E-07
vn -1.6 0 -1.907349E-07
vn -1.6 0 -1.907349E-07
vn -1.6 0 -1.907349E-07
vn -1.6 0 -1.907349E-07
vn 1.6 0 1.907349E-07
vn 1.6 0 1.907349E-07
vn 1.6 0 1.907349E-07
vn 1.6 0 1.907349E-07
vn 1.6 0 1.907349E-07
vn 1.6 0 1.907349E-07
vn -2.980206E-07 0.02287599 2.499979
vn -2.980206E-07 0.02287599 2.499979
vn -2.980206E-07 0.02287599 2.499979
vn -2.980206E-07 0.02287599 2.499979
vn -2.980206E-07 0.02287909 2.499979
vn -2.980206E-07 0.02287909 2.499979
vn -2.980206E-07 0.02287909 2.499979
vn -2.980206E-07 0.02287909 2.499979
vn -2.980206E-07 0.02287754 2.499979
vn -2.980206E-07 0.02287754 2.499979
vn -2.980206E-07 0.02287754 2.499979
vn -2.980206E-07 0.02287754 2.499979
vn -2.980206E-07 0.02287754 2.499979
vn -2.980206E-07 0.02287754 2.499979
vn -2.980206E-07 0.02287754 2.499979
vn -2.980206E-07 0.02287754 2.499979
vn 0 -5.5 0
vn 0 -5.5 0
vn 0 -5.5 0
vn 0 -5.5 0
vn 0 -5.5 0
vn -1.6 0 -1.907349E-07
vn -1.6 0 -1.907349E-07
vn -1.6 0 -1.907349E-07
vn -1.6 0 -1.907349E-07
vn -1.6 0 -1.907349E-07
vn 1.6 0 1.907349E-07
vn 1.6 0 1.907349E-07
vn 1.6 0 1.907349E-07
vn 1.6 0 1.907349E-07
vn 1.6 0 1.907349E-07
vn -2.610157E-12 -5.5 2.189558E-05
vn -2.610157E-12 -5.5 2.189558E-05
vn -2.610157E-12 -5.5 2.189558E-05
vn -2.610157E-12 -5.5 2.189558E-05
vn -2.610157E-12 -5.5 2.189559E-05
vn -2.610157E-12 -5.5 2.189558E-05
vn -2.610157E-12 -5.5 2.189558E-05
vn -2.610157E-12 -5.5 2.189558E-05
vn -1.6 0 -1.907349E-07
vn -1.6 0 -1.907349E-07
vn -1.6 0 -1.907349E-07
vn -1.6 0 -1.907349E-07
vn 1.6 9.137129E-11 2.007193E-07
vn 1.6 9.136854E-11 2.007193E-07
vn 1.6 9.137403E-11 2.007193E-07
vn 1.6 9.137129E-11 2.007193E-07
vn -1.266223E-09 -5.49995 0.01062185
vn -1.266223E-09 -5.49995 0.01062185
vn -1.266223E-09 -5.49995 0.01062185
vn -1.266223E-09 -5.49995 0.01062185
vn -1.6 0 -1.907349E-07
vn -1.6 0 -1.907349E-07
vn -1.6 0 -1.907349E-07
vn -1.6 0 -1.907349E-07
vn 1.266228E-09 5.49995 -0.01062189
vn 1.266228E-09 5.49995 -0.01062189
vn 1.266228E-09 5.49995 -0.01062189
vn 1.266228E-09 5.49995 -0.01062189
vn 1.6 9.136542E-11 2.007193E-07
vn 1.6 9.136857E-11 2.007193E-07
vn 1.6 9.136226E-11 2.007193E-07
vn 1.6 9.136542E-11 2.007193E-07
vn 7.935437E-10 -5.49998 -0.006656728
vn 7.935437E-10 -5.49998 -0.006656728
vn 7.935437E-10 -5.49998 -0.006656728
vn 7.935437E-10 -5.49998 -0.006656728
vn 1.6 0 1.907349E-07
vn 1.6 0 1.907349E-07
vn 1.6 0 1.907349E-07
vn 1.6 0 1.907349E-07
vn -1.6 -1.529526E-06 1.785782E-06
vn -1.6 -1.529524E-06 1.785782E-06
vn -1.6 -1.529528E-06 1.785782E-06
vn -1.6 -1.529526E-06 1.785782E-06
vn -7.935437E-10 5.49998 0.006656728
vn -7.935437E-10 5.49998 0.006656728
vn -7.935437E-10 5.49998 0.006656728
vn -7.935437E-10 5.49998 0.006656728
vn 7.935436E-10 -5.49998 -0.006656727
vn 7.935437E-10 -5.49998 -0.006656728
vn 7.935438E-10 -5.49998 -0.006656728
vn 7.935436E-10 -5.49998 -0.006656727
vn -7.935436E-10 5.49998 0.006656727
vn -7.935437E-10 5.49998 0.006656728
vn -7.935438E-10 5.49998 0.006656728
vn -7.935436E-10 5.49998 0.006656727
vn -2.167526E-09 -5.49998 -0.006656727
vn -2.592243E-09 -5.49998 -0.006656728
vn -1.74281E-09 -5.49998 -0.006656728
vn -2.167526E-09 -5.49998 -0.006656727
vn -7.935436E-10 5.49998 0.006656727
vn -7.935437E-10 5.49998 0.006656728
vn -7.935436E-10 5.49998 0.006656727
vn -7.935436E-10 5.49998 0.006656727

vt 0 0.001843431
vt 0 0.4348682
vt 0.3 0.001843431
vt 0.3 0.4348682
vt -0.25 0
vt -0.75 0
vt -0.25 0.3
vt -0.75 0.3
vt 0 0.4351253
vt 0 0.002110826
vt -0.3 0.4351253
vt -0.3 0.002110826
vt 0.25 0.4330127
vt 0.75 0.4330127
vt 0.255 0.4243525
vt 0.745 0.4243568
vt -0.75 0.4330127
vt -0.25 0.4330127
vt -0.745 0.4243568
vt -0.255 0.4243525
vt 0.7387792 0.3
vt 0.7487792 0.3
vt 0.7487792 -3.411316E-17
vt 0.7387792 -3.411316E-17
vt 0.7387792 0.15
vt 0.150182 0.01087603
vt 0.0001819805 0.01087658
vt 0.0001827467 0.2921034
vt 0.07518275 0.2921031
vt 0.1501828 0.2921029
vt 0.1501835 0.4352741
vt 0.1501831 0.2965464
vt 0.07518313 0.2965467
vt 0.07518352 0.4352744
vt 0.15 0.3549214
vt 0.15 0.3502347
vt 0.075 0.3502347
vt 0.075 0.3549214
vt 0.07518275 0.2921031
vt 0.0001827467 0.2921034
vt 0.0001831298 0.296547
vt 0.07518313 0.2965467
vt 0.0001831298 0.296547
vt 0.0001835129 0.4352747
vt 0.07518352 0.4352744
vt 0.07518313 0.2965467
vt 0.3000006 0.3502347
vt 0.2250004 0.3502347
vt 0.2250004 0.3549214
vt 0.3000006 0.3549214
vt 0.2250002 0.3502347
vt 0.15 0.3502347
vt 0.15 0.3549214
vt 0.2250002 0.3549214
vt 0.1501831 0.2965464
vt 0.1501835 0.4352741
vt 0.2251835 0.4352739
vt 0.2251831 0.2965462
vt 0.2251835 0.4352739
vt 0.3001835 0.4352736
vt 0.3001831 0.2965459
vt 0.2251831 0.2965462
vt 0.300182 0.01087549
vt 0.150182 0.01087603
vt 0.1501828 0.2921029
vt 0.2251828 0.2921026
vt 0.3001828 0.2921023
vt 0.7418897 0.2812158
vt 0.7434448 0.285637
vt 0.745 0.4243568
vt 0.75 0.4330127
vt 0.7487793 -4.371125E-08
vt 0.7387793 4.292046E-06
vt -0.7418897 0.2812158
vt -0.7387793 4.292046E-06
vt -0.7487793 -4.371139E-08
vt -0.75 0.4330127
vt -0.745 0.4243568
vt -0.7434448 0.285637
vt -1.954987E-09 0.423332
vt -1.954987E-09 0.2111539
vt -0.009252578 0.2111539
vt -0.009252578 0.423332
vt -1.954987E-09 0.2111535
vt -1.954987E-09 -0.00102458
vt -0.009252578 -0.00102458
vt -0.009252578 0.2111535
vt 0.009252578 -0.001068028
vt 0.3 -0.001068028
vt 0.3 0.2111101
vt 0.009252578 0.2111101
vt 0.3 0.2111101
vt 0.3 0.4232881
vt 0.009252578 0.4232881
vt 0.009252578 0.2111101
vt 0.2467651 0.3
vt 0.2567651 0.3
vt 0.2567651 0.009252578
vt 0.2567651 0
vt 0.2467651 0
vt 0.2467651 0
vt 0.25 0.4330127
vt 0.255 0.4243525
vt 0.2558826 0.2121762
vt 0.2567651 0
vt -0.25 0.4330127
vt -0.2467651 0
vt -0.2567651 0
vt -0.2558826 0.2121762
vt -0.255 0.4243525
vt 0.2550037 0.3
vt 0.7450037 0.3
vt 0.7450037 0.225
vt 0.7450037 0.15
vt 0.7450037 0.075
vt 0.7450037 -2.062206E-13
vt 0.2550037 -2.062206E-13
vt 0.2550037 0.009252578
vt 0.2567651 0
vt 0.2558826 0.2121762
vt 0.7462651 0.002079777
vt 0.7453825 0.214256
vt -0.2558826 0.2121762
vt -0.2567651 -1.703546E-20
vt -0.7453825 0.214256
vt -0.7462651 0.002079777
vt 0.2567628 0
vt 0.2567628 0.009252578
vt 0.7462673 1.954987E-09
vt 0.7462673 0.009252578
vt 0.2558826 0.2121762
vt 0.255 0.4243525
vt 0.7453825 0.214256
vt 0.7445 0.4264323
vt -0.2568007 0.009252578
vt -0.2568007 0
vt -0.7463051 0.009252578
vt -0.7463051 1.954987E-09
vt -0.255 0.4243525
vt -0.2558826 0.2121762
vt -0.7445 0.4264323
vt -0.7453825 0.214256
vt 0.7411382 0.15
vt 0.7411382 0.075
vt 0.2515533 0.15
vt 0.2515533 0.075
vt -0.7418896 0.2812158
vt -0.7434448 0.285637
vt -0.2523065 0.2825194
vt -0.2538617 0.2869406
vt 0.7434446 0.2856371
vt 0.7418894 0.2812159
vt 0.2538614 0.2869407
vt 0.2523063 0.2825195
vt -0.7426816 0.075
vt -0.7426816 0.15
vt -0.2530967 0.075
vt -0.2530967 0.15
vt 0.7411382 0.225
vt 0.7411382 0.15
vt 0.2515533 0.2250002
vt 0.2515533 0.15
vt -0.7426816 0.15
vt -0.7426816 0.225
vt -0.2530967 0.15
vt -0.2530967 0.2250002
vt 0.7411383 0.3
vt 0.7411382 0.225
vt 0.2515534 0.3000004
vt 0.2515533 0.2250002
vt -0.7426816 0.225
vt -0.7426816 0.3
vt -0.2530967 0.2250002
vt -0.2530967 0.3000004

g CabinetPickup_0
usemtl ArmarioIn_Texture
f 3/3/3 4/4/4 2/2/2 1/1/1
f 7/7/7 8/8/8 6/6/6 5/5/5
f 11/11/11 12/12/12 10/10/10 9/9/9
f 15/15/15 16/16/16 14/14/14 13/13/13
f 19/19/19 20/20/20 18/18/18 17/17/17
f 31/31/31 34/34/34 33/33/33 32/32/32
f 35/35/35 38/38/38 37/37/37 36/36/36
f 41/41/41 40/40/40 39/39/39 42/42/42
f 44/44/44 43/43/43 46/46/46 45/45/45
f 50/50/50 49/49/49 48/48/48 47/47/47
f 54/54/54 53/53/53 52/52/52 51/51/51
f 57/57/57 56/56/56 55/55/55 58/58/58
f 60/60/60 59/59/59 62/62/62 61/61/61
f 81/81/81 80/80/80 83/83/83 82/82/82
f 85/85/85 84/84/84 87/87/87 86/86/86
f 88/88/88 91/91/91 90/90/90 89/89/89
f 92/92/92 95/95/95 94/94/94 93/93/93
f 121/121/121 122/122/122 120/120/120 119/119/119
f 125/125/125 126/126/126 124/124/124 123/123/123
f 129/129/129 130/130/130 128/128/128 127/127/127
f 133/133/133 134/134/134 132/132/132 131/131/131
f 137/137/137 138/138/138 136/136/136 135/135/135
f 141/141/141 142/142/142 140/140/140 139/139/139
f 145/145/145 146/146/146 144/144/144 143/143/143
f 149/149/149 150/150/150 148/148/148 147/147/147
f 153/153/153 154/154/154 152/152/152 151/151/151
f 157/157/157 158/158/158 156/156/156 155/155/155
f 161/161/161 162/162/162 160/160/160 159/159/159
f 165/165/165 166/166/166 164/164/164 163/163/163
f 169/169/169 170/170/170 168/168/168 167/167/167
f 173/173/173 174/174/174 172/172/172 171/171/171

g CabinetPickup_1
usemtl ArmarioIn_Texture
f 21/21/21 25/25/25 22/22/22
f 25/25/25 23/23/23 22/22/22
f 25/25/25 24/24/24 23/23/23
f 29/29/29 26/26/26 30/30/30
f 29/29/29 27/27/27 26/26/26
f 28/28/28 27/27/27 29/29/29
f 66/66/66 63/63/63 67/67/67
f 63/63/63 66/66/66 64/64/64
f 66/66/66 65/65/65 64/64/64
f 71/71/71 70/70/70 69/69/69
f 71/71/71 69/69/69 68/68/68
f 72/72/72 71/71/71 68/68/68
f 68/68/68 73/73/73 72/72/72
f 76/76/76 75/75/75 74/74/74
f 74/74/74 77/77/77 76/76/76
f 74/74/74 79/79/79 77/77/77
f 79/79/79 78/78/78 77/77/77
f 98/98/98 97/97/97 96/96/96
f 100/100/100 98/98/98 96/96/96
f 100/100/100 99/99/99 98/98/98
f 103/103/103 102/102/102 104/104/104
f 104/104/104 101/101/101 105/105/105
f 104/104/104 102/102/102 101/101/101
f 107/107/107 106/106/106 109/109/109
f 108/108/108 107/107/107 109/109/109
f 109/109/109 106/106/106 110/110/110
f 113/113/113 112/112/112 111/111/111
f 118/118/118 113/113/113 111/111/111
f 118/118/118 114/114/114 113/113/113
f 115/115/115 114/114/114 118/118/118
f 117/117/117 115/115/115 118/118/118
f 117/117/117 116/116/116 115/115/115

