# Exported from ProBuilder
# http://www.procore3d.com/probuilder
# 27/08/2024 11:05:50

mtllib ./CrystalSave.mtl
o CrystalSave

g CrystalSave
v -18.25148 -0.198181 16.52085
v -18.25324 -0.198181 16.52085
v -18.00236 0.301819 16.76997
v -18.50236 0.301819 16.76997
v -18.25324 -0.198181 16.52085
v -18.25324 -0.198181 16.51909
v -18.50236 0.301819 16.76997
v -18.50236 0.301819 16.26997
v -18.25324 -0.198181 16.51909
v -18.25148 -0.198181 16.51909
v -18.50236 0.301819 16.26997
v -18.00236 0.301819 16.26997
v -18.25148 -0.198181 16.51909
v -18.25148 -0.198181 16.52085
v -18.00236 0.301819 16.26997
v -18.00236 0.301819 16.76997
v -18.00236 0.301819 16.76997
v -18.50236 0.301819 16.76997
v -18.24992 0.951819 16.52241
v -18.2548 0.951819 16.52241
v -18.00236 0.301819 16.26997
v -18.00236 0.301819 16.76997
v -18.24992 0.951819 16.51753
v -18.24992 0.951819 16.52241
v -18.50236 0.301819 16.76997
v -18.50236 0.301819 16.26997
v -18.2548 0.951819 16.52241
v -18.2548 0.951819 16.51753
v -18.50236 0.301819 16.26997
v -18.00236 0.301819 16.26997
v -18.2548 0.951819 16.51753
v -18.24992 0.951819 16.51753

vn 0 -0.2229737 0.4475296
vn 0 -0.2229736 0.4475296
vn 0 -0.2229737 0.4475296
vn 0 -0.2229737 0.4475296
vn -0.4475296 -0.2229737 0
vn -0.4475296 -0.2229737 0
vn -0.4475296 -0.2229737 0
vn -0.4475296 -0.2229737 0
vn 0 -0.2229737 -0.4475296
vn 0 -0.2229737 -0.4475296
vn 0 -0.2229737 -0.4475296
vn 0 -0.2229737 -0.4475296
vn 0.4475296 -0.2229737 0
vn 0.4475296 -0.2229736 0
vn 0.4475296 -0.2229737 0
vn 0.4475296 -0.2229737 0
vn 0 0.1779621 0.4672574
vn 0 0.1779621 0.4672574
vn 0 0.1779625 0.4672573
vn 0 0.1779621 0.4672574
vn 0.4672574 0.1779621 0
vn 0.4672574 0.1779621 0
vn 0.4672572 0.1779627 0
vn 0.4672574 0.1779621 0
vn -0.4672574 0.1779621 0
vn -0.4672574 0.1779621 0
vn -0.4672574 0.1779622 0
vn -0.4672574 0.1779621 0
vn 0 0.177962 -0.4672574
vn 0 0.177962 -0.4672574
vn 0 0.1779625 -0.4672573
vn 0 0.177962 -0.4672574

vt -0.4982322 -0.2221853
vt -0.5017678 -0.2221853
vt 0 0.8950592
vt -1 0.8950592
vt -0.4982322 0.223762
vt -0.5017678 0.223762
vt 0 1.341007
vt -1 1.341007
vt 0.5017678 0.223762
vt 0.4982322 0.223762
vt 1 1.341007
vt 0 1.341007
vt 0.5017678 -0.2221853
vt 0.4982322 -0.2221853
vt 1 0.8950592
vt 0 0.8950592
vt 0 0.9345149
vt -1 0.9345149
vt -0.4951247 2.325611
vt -0.5048753 2.325611
vt 1 0.9345149
vt 0 0.9345149
vt 0.5048754 2.325611
vt 0.4951247 2.325611
vt 0 0.5785907
vt -1 0.5785907
vt -0.4951247 1.969687
vt -0.5048754 1.969687
vt 1 0.5785908
vt 0 0.5785908
vt 0.5048753 1.969687
vt 0.4951247 1.969687

g CrystalSave
usemtl Default_Prototype
f 3/3/3 4/4/4 2/2/2 1/1/1
f 7/7/7 8/8/8 6/6/6 5/5/5
f 11/11/11 12/12/12 10/10/10 9/9/9
f 15/15/15 16/16/16 14/14/14 13/13/13
f 19/19/19 20/20/20 18/18/18 17/17/17
f 23/23/23 24/24/24 22/22/22 21/21/21
f 27/27/27 28/28/28 26/26/26 25/25/25
f 31/31/31 32/32/32 30/30/30 29/29/29

