# Exported from ProBuilder
# http://www.procore3d.com/probuilder
# 27/08/2024 16:23:24

mtllib ./g1.mtl
o g1

g Cube
v 0 0.1366832 -0.155793
v -0.05 0.1366832 -0.155793
v 0 1 0
v -0.05 1 0
v -0.05 0.1366832 -0.155793
v -0.05 0 -1
v -0.05 1 0
v -0.05 0.6245313 -0.6432652
v -0.05 0 -1
v 0 0 -1
v -0.05 0.6245313 -0.6432652
v 0 0.6245313 -0.6432652
v 0 0 -1
v 0 0.1366832 -0.155793
v 0 0.6245313 -0.6432652
v 0 1 0
v 0 1 0
v -0.05 1 0
v 0 0.6245313 -0.6432652
v -0.05 0.6245313 -0.6432652
v 0 0 -1
v -0.05 0 -1
v 0 0.1366832 -0.155793
v -0.05 0.1366832 -0.155793

vn 0 -0.1775902 0.9841045
vn 0 -0.1775902 0.9841045
vn 0 -0.1775902 0.9841045
vn 0 -0.1775902 0.9841045
vn -1 0 0
vn -1 0 0
vn -1 0 0
vn -1 0 0
vn 0 0.4959919 -0.8683271
vn 0 0.4959919 -0.8683271
vn 0 0.4959919 -0.8683271
vn 0 0.4959919 -0.8683271
vn 1 0 0
vn 1 0 0
vn 1 0 0
vn 1 0 0
vn 0 0.8636441 -0.5041021
vn 0 0.8636441 -0.5041021
vn 0 0.8636441 -0.5041021
vn 0 0.8636441 -0.5041021
vn 0 -0.9871452 0.159826
vn 0 -0.9871452 0.159826
vn 0 -0.9871452 0.159826
vn 0 -0.9871452 0.159826

vt 0 0.1068433
vt -0.05 0.1068433
vt 0 0.9841045
vt -0.05 0.9841045
vt -0.155793 0.1366832
vt -1 0
vt 0 1
vt -0.6432652 0.6245313
vt 0.05 -0.4959919
vt 0 -0.4959919
vt 0.05 0.2232431
vt 0 0.2232431
vt 1 0
vt 0.155793 0.1366832
vt 0.6432652 0.6245313
vt 0 1
vt 0 0.5041021
vt 0.05 0.5041021
vt 0 -0.2407247
vt 0.05 -0.2407247
vt 0 -0.9871452
vt -0.05 -0.9871452
vt 0 -0.1319448
vt -0.05 -0.1319448

g Cube
usemtl Default_Prototype
f 3/3/3 4/4/4 2/2/2 1/1/1
f 7/7/7 8/8/8 6/6/6 5/5/5
f 11/11/11 12/12/12 10/10/10 9/9/9
f 15/15/15 16/16/16 14/14/14 13/13/13
f 19/19/19 20/20/20 18/18/18 17/17/17
f 23/23/23 24/24/24 22/22/22 21/21/21

