# Exported from ProBuilder
# http://www.procore3d.com/probuilder
# 27/08/2024 16:09:07

mtllib ./glass2.mtl
o glass2

g Cube
v -39.555 16.06313 49.7892
v -39.60465 16.06313 49.7892
v -39.555 16.58007 49.858
v -39.60465 16.58007 49.858
v -39.60465 16.06313 49.7892
v -39.60465 16.28169 49.51485
v -39.60465 16.58007 49.858
v -39.60465 16.49001 49.56102
v -39.60465 16.28169 49.51485
v -39.555 16.28169 49.51485
v -39.60465 16.49001 49.56102
v -39.555 16.49001 49.56102
v -39.555 16.28169 49.51485
v -39.555 16.06313 49.7892
v -39.555 16.49001 49.56102
v -39.555 16.58007 49.858
v -39.555 16.58007 49.858
v -39.60465 16.58007 49.858
v -39.555 16.49001 49.56102
v -39.60465 16.49001 49.56102
v -39.555 16.28169 49.51485
v -39.60465 16.28169 49.51485
v -39.555 16.06313 49.7892
v -39.60465 16.06313 49.7892

vn 0 -0.06550783 0.4921696
vn 0 -0.06550783 0.4921696
vn 0 -0.06550783 0.4921696
vn 0 -0.06550783 0.4921696
vn -0.49651 0 0
vn -0.49651 0 0
vn -0.49651 0 0
vn -0.49651 0 0
vn 0 0.1074391 -0.4847464
vn 0 0.1074391 -0.4847464
vn 0 0.1074391 -0.4847464
vn 0 0.1074391 -0.4847464
vn 0.49651 0 0
vn 0.49651 0 0
vn 0.49651 0 0
vn 0.49651 0 0
vn 0 0.4751424 -0.1440896
vn 0 0.4751424 -0.1440896
vn 0 0.4751424 -0.1440896
vn 0 0.4751424 -0.1440896
vn 0 -0.3883397 -0.3093775
vn 0 -0.3883397 -0.3093775
vn 0 -0.3883397 -0.3093775
vn 0 -0.3883397 -0.3093775

vt 0 0.1237234
vt -0.1 0.1237234
vt 0 1.17405
vt -0.1 1.17405
vt -0.1385765 0.143259
vt -0.6911275 0.5834583
vt 0 1.184404
vt -0.5981369 1.003016
vt 0.1 0.4200825
vt 0 0.4200825
vt 0.1 0.8498214
vt 0 0.8498214
vt 0.6911275 0.5834583
vt 0.1385765 0.143259
vt 0.5981369 1.003016
vt 0 1.184404
vt 0 0.3437198
vt 0.1 0.3437198
vt 0 -0.2813158
vt 0.1 -0.2813158
vt 0 -0.9041131
vt -0.1 -0.9041131
vt 0 -0.1976514
vt -0.1 -0.1976514

g Cube
usemtl Default_Prototype
f 3/3/3 4/4/4 2/2/2 1/1/1
f 7/7/7 8/8/8 6/6/6 5/5/5
f 11/11/11 12/12/12 10/10/10 9/9/9
f 15/15/15 16/16/16 14/14/14 13/13/13
f 19/19/19 20/20/20 18/18/18 17/17/17
f 23/23/23 24/24/24 22/22/22 21/21/21

