# Exported from ProBuilder
# http://www.procore3d.com/probuilder
# 27/08/2024 16:09:39

mtllib ./glass3.mtl
o glass3

g Cube
v -39.555 16.41808 49.7892
v -39.60465 16.41808 49.7892
v -39.555 16.58007 49.858
v -39.60465 16.58007 49.858
v -39.60465 16.41808 49.7892
v -39.60465 16.28169 49.51485
v -39.60465 16.58007 49.858
v -39.60465 16.60766 49.35309
v -39.60465 16.28169 49.51485
v -39.555 16.28169 49.51485
v -39.60465 16.60766 49.35309
v -39.555 16.60766 49.35309
v -39.555 16.28169 49.51485
v -39.555 16.41808 49.7892
v -39.555 16.60766 49.35309
v -39.555 16.58007 49.858
v -39.555 16.58007 49.858
v -39.60465 16.58007 49.858
v -39.555 16.60766 49.35309
v -39.60465 16.60766 49.35309
v -39.555 16.28169 49.51485
v -39.60465 16.28169 49.51485
v -39.555 16.41808 49.7892
v -39.60465 16.41808 49.7892

vn 0 -0.1941042 0.4569964
vn 0 -0.1941042 0.4569964
vn 0 -0.1941042 0.4569964
vn 0 -0.1941042 0.4569964
vn -0.49651 0 0
vn -0.49651 0 0
vn -0.49651 0 0
vn -0.49651 0 0
vn 0 -0.2207093 -0.4447579
vn 0 -0.2207093 -0.4447579
vn 0 -0.2207093 -0.4447579
vn 0 -0.2207093 -0.4447579
vn 0.49651 0 0
vn 0.49651 0 0
vn 0.49651 0 0
vn 0.49651 0 0
vn 0 0.4957702 0.02709392
vn 0 0.4957702 0.02709392
vn 0 0.4957702 0.02709392
vn 0 0.4957702 0.02709392
vn 0 -0.4446034 0.2210203
vn 0 -0.4446034 0.2210203
vn 0 -0.4446034 0.2210203
vn 0 -0.4446034 0.2210203

vt 0 0.7356734
vt -0.1 0.7356734
vt 0 1.090146
vt -0.1 1.090146
vt -0.1385765 0.8581412
vt -0.6911275 0.5834583
vt 0 1.184404
vt -1.016923 1.239979
vt 0.1 0.8298644
vt 0 0.8298644
vt 0.1 1.562778
vt 0 1.562778
vt 0.6911275 0.5834583
vt 0.1385765 0.8581412
vt 1.016923 1.239979
vt 0 1.184404
vt 0 -0.06463142
vt 0.1 -0.06463142
vt 0 -1.083072
vt 0.1 -1.083072
vt 0 -0.3591499
vt -0.1 -0.3591499
vt 0 0.2579103
vt -0.1 0.2579103

g Cube
usemtl Default_Prototype
f 3/3/3 4/4/4 2/2/2 1/1/1
f 7/7/7 8/8/8 6/6/6 5/5/5
f 11/11/11 12/12/12 10/10/10 9/9/9
f 15/15/15 16/16/16 14/14/14 13/13/13
f 19/19/19 20/20/20 18/18/18 17/17/17
f 23/23/23 24/24/24 22/22/22 21/21/21

