# Exported from ProBuilder
# http://www.procore3d.com/probuilder
# 27/08/2024 16:08:30

mtllib ./glass1.mtl
o glass1

g Cube
v -39.555 16.06313 49.7892
v -39.60465 16.06313 49.7892
v -39.555 16.73676 49.858
v -39.60465 16.73676 49.858
v -39.60465 16.06313 49.7892
v -39.60465 15.992 49.36149
v -39.60465 16.73676 49.858
v -39.60465 16.49001 49.56102
v -39.60465 15.992 49.36149
v -39.555 15.992 49.36149
v -39.60465 16.49001 49.56102
v -39.555 16.49001 49.56102
v -39.555 15.992 49.36149
v -39.555 16.06313 49.7892
v -39.555 16.49001 49.56102
v -39.555 16.73676 49.858
v -39.555 16.73676 49.858
v -39.60465 16.73676 49.858
v -39.555 16.49001 49.56102
v -39.60465 16.49001 49.56102
v -39.555 15.992 49.36149
v -39.60465 15.992 49.36149
v -39.555 16.06313 49.7892
v -39.60465 16.06313 49.7892

vn 0 -0.05045068 0.4939402
vn 0 -0.05045068 0.4939402
vn 0 -0.05045068 0.4939402
vn 0 -0.05045068 0.4939402
vn -0.49651 0 0
vn -0.49651 0 0
vn -0.49651 0 0
vn -0.49651 0 0
vn 0 0.1846594 -0.4608938
vn 0 0.1846594 -0.4608938
vn 0 0.1846594 -0.4608938
vn 0 0.1846594 -0.4608938
vn 0.49651 0 0
vn 0.49651 0 0
vn 0.49651 0 0
vn 0.49651 0 0
vn 0 0.3818885 -0.3173064
vn 0 0.3818885 -0.3173064
vn 0 0.3818885 -0.3173064
vn 0 0.3818885 -0.3173064
vn 0 -0.4897832 0.08145339
vn 0 -0.4897832 0.08145339
vn 0 -0.4897832 0.08145339
vn 0 -0.4897832 0.08145339

vt 0 0.1284367
vt -0.1 0.1284367
vt 0 1.492236
vt -0.1 1.492236
vt -0.1385765 0.143259
vt -1 0
vt 0 1.5
vt -0.5981369 1.003016
vt 0.1 -0.3719147
vt 0 -0.3719147
vt 0.1 0.7086102
vt 0 0.7086102
vt 1 0
vt 0.1385765 0.143259
vt 0.5981369 1.003016
vt 0 1.5
vt 0 0.9586104
vt 0.1 0.9586104
vt 0 0.1809463
vt 0.1 0.1809463
vt 0 -0.9864517
vt -0.1 -0.9864517
vt 0 -0.1131971
vt -0.1 -0.1131971

g Cube
usemtl Default_Prototype
f 3/3/3 4/4/4 2/2/2 1/1/1
f 7/7/7 8/8/8 6/6/6 5/5/5
f 11/11/11 12/12/12 10/10/10 9/9/9
f 15/15/15 16/16/16 14/14/14 13/13/13
f 19/19/19 20/20/20 18/18/18 17/17/17
f 23/23/23 24/24/24 22/22/22 21/21/21

