# Exported from ProBuilder
# http://www.procore3d.com/probuilder
# 21/08/2024 11:01:51

mtllib ./HealthP.mtl
o HealthP

g Cube
v 0 0.251 -0.05000001
v 0 0.251 -3.552714E-15
v -0.3 0.251 -3.552714E-15
v -0.3 0.251 -0.05000001
v -0.3 0.251 -0.05000001
v -0.3 0.251 -3.552714E-15
v -0.3 0.0009999871 2.980232E-08
v -0.3 0.0009999812 -0.04999998
v -0.3 0.0009999812 -0.04999998
v -0.3 0.0009999871 2.980232E-08
v 0 0.0009999871 2.980232E-08
v 0 0.0009999812 -0.04999998
v 0 0.0009999812 -0.04999998
v 0 0.0009999871 2.980232E-08
v 0 0.251 -3.552714E-15
v 0 0.251 -0.05000001
v 0 0.0009999812 -0.04999998
v 0 0.251 -0.05000001
v -0.3 0.251 -0.05000001
v -0.3 0.0009999812 -0.04999998
v 0 0.251 -3.552714E-15
v 0 0.0009999871 2.980232E-08
v -0.3 0.0009999871 2.980232E-08
v -0.3 0.251 -3.552714E-15

vn 0 1 -1.192093E-07
vn 0 1 -1.192093E-07
vn 0 1 -1.192093E-07
vn 0 1 -1.192093E-07
vn -1 0 0
vn -1 0 0
vn -1 0 0
vn -1 0 0
vn 0 -1 1.192093E-07
vn 0 -1 1.192093E-07
vn 0 -1 1.192093E-07
vn 0 -1 1.192093E-07
vn 1 0 0
vn 1 0 0
vn 1 0 0
vn 1 0 0
vn 0 -1.192093E-07 -1
vn 0 -1.192093E-07 -1
vn 0 -1.192093E-07 -1
vn 0 -1.192093E-07 -1
vn 0 1.192093E-07 1
vn 0 1.192093E-07 1
vn 0 1.192093E-07 1
vn 0 1.192093E-07 1

vt 0.9618652 0.3636392
vt 0.9626213 0.2218113
vt 0.01892194 0.2167801
vt 0.0181658 0.358608
vt 0.9815679 0.3438203
vt 0.982132 0.02021645
vt 0.01928124 0.01853806
vt 0.01871714 0.3421419
vt 0.9888008 0.3585475
vt 0.9909222 0.2301709
vt 0.004873961 0.2138762
vt 0.002752513 0.3422529
vt 0.9934506 0.3513286
vt 0.9924077 0.01026617
vt 0.008827329 0.01327382
vt 0.009870261 0.3543362
vt 0.01300231 0.9869523
vt 0.974342 0.9996967
vt 0.982725 0.367338
vt 0.02138543 0.3545936
vt 0.9904408 0.3738017
vt 0.02471584 0.366599
vt 0.0199694 1.002988
vt 0.9856944 1.010191

g Cube
usemtl HealthPill
f 4/4/4 3/3/3 2/2/2 1/1/1
f 8/8/8 7/7/7 6/6/6 5/5/5
f 12/12/12 11/11/11 10/10/10 9/9/9
f 16/16/16 15/15/15 14/14/14 13/13/13
f 20/20/20 19/19/19 18/18/18 17/17/17
f 24/24/24 23/23/23 22/22/22 21/21/21

