# Exported from ProBuilder
# http://www.procore3d.com/probuilder
# 21/08/2024 11:08:57

mtllib ./Pills.mtl
o Pills

g Cube
v -0.16875 0.1411875 -0.028125
v 1.862645E-09 0.1411875 -0.028125
v 1.862645E-09 0.1411875 9.313226E-10
v -0.16875 0.1411875 9.313226E-10
v -0.16875 0.0005624834 -0.02812499
v -0.16875 0.1411875 -0.028125
v -0.16875 0.1411875 9.313226E-10
v -0.16875 0.000562489 1.769513E-08
v 1.862645E-09 0.0005624834 -0.02812499
v -0.16875 0.0005624834 -0.02812499
v -0.16875 0.000562489 1.769513E-08
v 1.862645E-09 0.000562489 1.769513E-08
v 1.862645E-09 0.1411875 -0.028125
v 1.862645E-09 0.0005624834 -0.02812499
v 1.862645E-09 0.000562489 1.769513E-08
v 1.862645E-09 0.1411875 9.313226E-10
v -0.16875 0.0005624834 -0.02812499
v 1.862645E-09 0.0005624834 -0.02812499
v 1.862645E-09 0.1411875 -0.028125
v -0.16875 0.1411875 -0.028125
v -0.16875 0.1411875 9.313226E-10
v 1.862645E-09 0.1411875 9.313226E-10
v 1.862645E-09 0.000562489 1.769513E-08
v -0.16875 0.000562489 1.769513E-08

vn 0 0.75 0
vn 0 0.75 0
vn 0 0.75 0
vn 0 0.75 0
vn -0.75 0 0
vn -0.75 0 0
vn -0.75 0 0
vn -0.75 0 0
vn 0 -0.75 1.490116E-07
vn 0 -0.75 1.490116E-07
vn 0 -0.75 1.490116E-07
vn 0 -0.75 1.490116E-07
vn 0.75 0 0
vn 0.75 0 0
vn 0.75 0 0
vn 0.75 0 0
vn 0 -8.940697E-08 -0.75
vn 0 -8.940697E-08 -0.75
vn 0 -8.940697E-08 -0.75
vn 0 -8.940697E-08 -0.75
vn 0 8.940697E-08 0.75
vn 0 8.940697E-08 0.75
vn 0 8.940697E-08 0.75
vn 0 8.940697E-08 0.75

vt 0.0181658 0.358608
vt 0.9618652 0.3636392
vt 0.9626213 0.2218113
vt 0.01892194 0.2167801
vt 0.01871714 0.3421419
vt 0.9815679 0.3438203
vt 0.982132 0.02021645
vt 0.01928124 0.01853806
vt 0.002752513 0.3422529
vt 0.9888008 0.3585475
vt 0.9909222 0.2301709
vt 0.004873961 0.2138762
vt 0.009870261 0.3543362
vt 0.9934506 0.3513286
vt 0.9924077 0.01026617
vt 0.008827329 0.01327382
vt 0.02138543 0.3545936
vt 0.01300231 0.9869523
vt 0.974342 0.9996967
vt 0.982725 0.367338
vt 0.9856944 1.010191
vt 0.9904408 0.3738017
vt 0.02471584 0.366599
vt 0.0199694 1.002988

g Cube
usemtl HealthPill
f 4/4/4 3/3/3 2/2/2 1/1/1
f 8/8/8 7/7/7 6/6/6 5/5/5
f 12/12/12 11/11/11 10/10/10 9/9/9
f 16/16/16 15/15/15 14/14/14 13/13/13
f 20/20/20 19/19/19 18/18/18 17/17/17
f 24/24/24 23/23/23 22/22/22 21/21/21

