<?xml version="1.0" encoding="UTF-8" standalone="no"?>
<COLLADA xmlns="http://www.collada.org/2005/11/COLLADASchema" version="1.4.1">
  <asset>
    <contributor>
      <author>Poyo</author>
      <authoring_tool>GMDTool</authoring_tool>
    </contributor>
    <created>2020-08-21T15:52:33</created>
    <modified>2020-08-21T15:52:33</modified>
    <unit name="meter" meter="1" />
    <up_axis>Y_UP</up_axis>
  </asset>
  <library_images>
    <image id="lens_mt-diffuse-image">
      <init_from>acc008_03_Textures\acc008_03.png</init_from>
    </image>
    <image id="lens_mt-reflection-image">
      <init_from>acc008_03_Textures\lens00_rf.png</init_from>
    </image>
    <image id="frame_mt-diffuse-image">
      <init_from>acc008_03_Textures\acc008_03.png</init_from>
    </image>
  </library_images>
  <library_effects>
    <effect id="lens_mt-fx" name="lens_mt">
      <profile_COMMON>
        <newparam sid="lens_mt-diffuse-surface">
          <surface type="2D">
            <init_from>lens_mt-diffuse-image</init_from>
          </surface>
        </newparam>
        <newparam sid="lens_mt-diffuse-sampler">
          <sampler2D>
            <source>lens_mt-diffuse-surface</source>
          </sampler2D>
        </newparam>
        <newparam sid="lens_mt-reflection-surface">
          <surface type="2D">
            <init_from>lens_mt-reflection-image</init_from>
          </surface>
        </newparam>
        <newparam sid="lens_mt-reflection-sampler">
          <sampler2D>
            <source>lens_mt-reflection-surface</source>
          </sampler2D>
        </newparam>
        <technique sid="standard">
          <phong>
            <emission>
              <color sid="emission">0.2352941 0.2156863 0.1098039 30</color>
            </emission>
            <ambient>
              <color sid="ambient">0.6 0.6 0.6 0</color>
            </ambient>
            <diffuse>
              <texture texture="lens_mt-diffuse-sampler" texcoord="CHANNEL0" />
            </diffuse>
            <specular>
              <color sid="specular">0 0 0 1</color>
            </specular>
          </phong>
        </technique>
      </profile_COMMON>
    </effect>
    <effect id="acc008_03_outline-fx" name="acc008_03_outline">
      <profile_COMMON>
        <technique sid="standard">
          <phong>
            <emission>
              <color sid="emission">0 0 0 0</color>
            </emission>
            <ambient>
              <color sid="ambient">0.1490196 0.03921569 0.1490196 0</color>
            </ambient>
            <diffuse>
              <color sid="diffuse">0 0 0 0.7</color>
            </diffuse>
            <specular>
              <color sid="specular">0 0 0 1</color>
            </specular>
          </phong>
        </technique>
      </profile_COMMON>
    </effect>
    <effect id="frame_mt-fx" name="frame_mt">
      <profile_COMMON>
        <newparam sid="frame_mt-diffuse-surface">
          <surface type="2D">
            <init_from>frame_mt-diffuse-image</init_from>
          </surface>
        </newparam>
        <newparam sid="frame_mt-diffuse-sampler">
          <sampler2D>
            <source>frame_mt-diffuse-surface</source>
          </sampler2D>
        </newparam>
        <technique sid="standard">
          <phong>
            <emission>
              <color sid="emission">0 0 0 0</color>
            </emission>
            <ambient>
              <color sid="ambient">0.6 0.6 0.6 0</color>
            </ambient>
            <diffuse>
              <texture texture="frame_mt-diffuse-sampler" texcoord="CHANNEL0" />
            </diffuse>
            <specular>
              <color sid="specular">0 0 0 1</color>
            </specular>
          </phong>
        </technique>
      </profile_COMMON>
    </effect>
  </library_effects>
  <library_materials>
    <material id="lens_mt" name="lens_mt">
      <instance_effect url="#lens_mt-fx" />
    </material>
    <material id="acc008_03_outline" name="acc008_03_outline">
      <instance_effect url="#acc008_03_outline-fx" />
    </material>
    <material id="frame_mt" name="frame_mt">
      <instance_effect url="#frame_mt-fx" />
    </material>
  </library_materials>
  <library_geometries>
    <geometry id="meshId0" name="meshId0">
      <mesh>
        <source id="meshId0-positions" name="meshId0-positions">
          <float_array id="meshId0-positions-array" count="1338">28.62475 -2.861351 42.70277 28.62475 -2.861351 42.03172 27.72044 -4.132568 42.03172 27.72044 -4.132568 42.70277 26.7271 -5.039566 42.70277 26.7271 -5.039566 42.03172 25.0766 -5.798859 42.03172 25.0766 -5.798859 42.70277 9.871609 -5.798859 42.03172 9.871609 -5.798859 42.70277 8.221113 -5.039566 42.03172 8.221113 -5.039566 42.70277 7.148988 -4.18103 42.03172 7.148988 -4.18103 42.70277 6.354712 -2.861351 42.70277 6.354712 -2.861351 42.03172 5.781805 -0.3389803 42.03172 5.781805 -0.3389803 42.70277 5.781805 -0.3389803 42.70277 5.781805 -0.3389803 42.03172 6.354712 2.170311 42.03172 6.354712 2.170311 42.70277 7.095402 3.408936 42.03172 7.095402 3.408936 42.70277 8.221111 4.348534 42.70277 8.221111 4.348534 42.03172 9.87161 5.107826 42.03172 9.87161 5.107826 42.70277 25.0766 5.107857 42.03172 25.0766 5.107857 42.70277 26.7271 4.348549 42.03172 26.7271 4.348549 42.70277 27.84323 3.56385 42.03172 27.84323 3.56385 42.70277 28.62475 2.170311 42.70277 28.62475 2.170311 42.03172 29.1664 -0.3389803 42.03172 29.1664 -0.3389803 42.70277 29.1664 -0.3389803 42.70277 29.1664 -0.3389803 42.03172 5.396276 -10.27007 42.70277 4.227221 -9.756233 42.70277 4.214766 -9.756233 42.03172 5.371367 -10.27007 42.03172 30.97506 -7.974144 42.03172 30.97506 -7.974144 42.70277 30.51664 -8.307755 42.70277 30.51664 -8.307755 42.03172 30.97506 -7.974144 42.03172 29.1664 -0.3389803 42.03172 32.51641 9.208015 42.03172 32.51641 -7.974144 42.03172 29.1664 -0.3389803 42.70277 33.07122 9.208015 42.70277 28.62475 2.170311 42.70277 29.70316 -9.795647 42.03172 29.70316 -9.795647 42.70277 28.80232 -10.27007 42.70277 28.80232 -10.27007 42.03172 26.7271 -5.039566 42.03172 29.70316 -9.795647 42.03172 28.80232 -10.27007 42.03172 25.0766 -5.798859 42.03172 28.80232 -10.27007 42.70277 29.70316 -9.795647 42.70277 26.7271 -5.039566 42.70277 25.0766 -5.798859 42.70277 35.84187 6.686073 -17.06034 35.84187 2.235863 -13.51916 35.84187 -0.1801224 -14.9407 35.84187 3.739166 -19.80363 35.28706 6.686073 -17.06034 35.84187 6.686073 -17.06034 35.84187 3.739166 -19.80363 35.28706 3.739166 -19.80363 35.28706 6.686073 -17.06034 35.28706 2.235863 -13.51916 35.28706 2.927315 -12.6791 35.28706 8.613716 -14.09842 35.84187 2.927315 -12.6791 35.28706 2.927315 -12.6791 35.28706 2.235863 -13.51916 35.84187 2.235863 -13.51916 35.28706 8.613716 -14.09842 35.84187 8.613716 -14.09842 34.94775 -0.1865915 20.32302 34.39294 -0.1865915 20.32302 34.51615 2.058728 17.58064 35.07096 2.058728 17.58064 35.28706 -2.715492 -17.2023 35.28706 -0.1801224 -14.9407 35.28706 3.739166 -19.80363 35.28706 0.7922516 -21.78499 35.28706 -2.317642 -21.51625 35.28706 -3.260956 -20.08632 35.84187 -2.715492 -17.2023 35.28706 -2.715492 -17.2023 35.28706 -3.260956 -20.08632 35.84187 -3.260956 -20.08632 33.07122 -7.974144 42.70277 32.51641 -7.974144 42.03172 30.17003 -9.23381 42.70277 30.17003 -9.23381 42.03172 27.84323 3.56385 42.03172 28.62475 2.170311 42.03172 33.07122 9.208015 42.70277 32.51641 9.208015 42.03172 0 9.208015 42.03172 0 9.208015 42.70277 9.871609 -5.798859 42.70277 5.396276 -10.27007 42.70277 34.50243 -7.974152 29.21098 34.50243 9.208015 28.02152 33.14373 9.208015 42.03172 33.14373 -7.974144 42.03172 32.51641 9.208015 42.03172 33.14373 9.208015 42.03172 34.50243 9.208015 28.02152 33.94761 9.208015 28.02152 32.51641 -7.974144 42.03172 32.51641 9.208015 42.03172 33.94761 9.208015 28.02152 33.94761 -7.974152 29.21098 33.14373 -7.974144 42.03172 32.51641 -7.974144 42.03172 33.94761 -7.974152 29.21098 34.50243 -7.974152 29.21098 35.07096 2.058728 17.58064 35.07096 9.208015 17.60541 34.94775 -0.1865915 20.32302 34.6893 2.927315 14.56985 35.24412 2.927315 14.56985 34.51615 2.058728 17.58064 34.51615 9.208015 17.60541 34.6893 2.927315 14.56985 3.659057 -8.735924 42.03172 3.659057 -8.735924 42.70277 2.135294 -4.103844 42.70277 2.135294 -4.103844 42.03172 0 9.208015 42.03172 6.354712 2.170311 42.03172 1.067647 -2.415565 42.03172 35.84187 -3.260956 -20.08632 35.84187 -2.317642 -21.51625 35.84187 0.7922516 -21.78499 35.84187 -2.715492 -17.2023 35.28706 -2.317642 -21.51625 35.84187 -2.317642 -21.51625 35.84187 0.7922516 -21.78499 35.28706 0.7922516 -21.78499 35.84187 -0.1801224 -14.9407 35.28706 -0.1801224 -14.9407 35.28706 9.208015 -11.08939 35.28706 9.208015 -11.08939 35.84187 9.208015 -11.08939 34.06132 -7.012741 26.61299 34.39294 -0.1865915 20.32302 35.07096 9.208015 17.60541 34.51615 9.208015 17.60541 34.61613 -7.012741 26.61299 34.61613 -7.012741 26.61299 34.06132 -7.012741 26.61299 35.24412 2.927315 14.56985 35.84187 2.927315 -12.6791 35.84187 9.208015 -11.08939 35.28706 -2.317642 -21.51625 35.28706 0.7922516 -21.78499 35.84187 0.7922516 -21.78499 35.84187 -2.317642 -21.51625 1.067647 -2.415565 42.70277 1.067647 -2.415565 42.03172 30.17003 -9.23381 42.03172 27.72044 -4.132568 42.03172 28.62475 -2.861351 42.03172 30.51664 -8.307755 42.03172 30.51664 -8.307755 42.70277 28.62475 -2.861351 42.70277 27.72044 -4.132568 42.70277 30.17003 -9.23381 42.70277 30.97506 -7.974144 42.70277 33.07122 -7.974144 42.70277 27.84323 3.56385 42.70277 25.0766 5.107857 42.03172 26.7271 4.348549 42.03172 26.7271 4.348549 42.70277 25.0766 5.107857 42.70277 6.354712 -2.861351 42.03172 7.148988 -4.18103 42.03172 3.659057 -8.735924 42.03172 2.135294 -4.103844 42.03172 8.221113 -5.039566 42.70277 4.227221 -9.756233 42.70277 5.371367 -10.27007 42.03172 9.871609 -5.798859 42.03172 0 9.208015 42.70277 6.354712 2.170311 42.70277 7.095402 3.408936 42.70277 9.87161 5.107826 42.03172 8.221111 4.348534 42.70277 9.87161 5.107826 42.70277 8.221111 4.348534 42.03172 7.095402 3.408936 42.03172 2.135294 -4.103844 42.70277 5.781805 -0.3389803 42.70277 1.067647 -2.415565 42.70277 5.781805 -0.3389803 42.03172 0 -1.899315 42.70277 0 -1.899315 42.03172 0 -1.899315 42.03172 0 -1.899315 42.70277 7.148988 -4.18103 42.70277 3.659057 -8.735924 42.70277 4.214766 -9.756233 42.03172 8.221113 -5.039566 42.03172 6.354712 -2.861351 42.70277 35.84187 8.613716 -14.09842 -28.62475 -2.861351 42.70277 -27.72044 -4.132568 42.70277 -27.72044 -4.132568 42.03172 -28.62475 -2.861351 42.03172 -26.7271 -5.039566 42.70277 -25.0766 -5.798859 42.70277 -25.0766 -5.798859 42.03172 -26.7271 -5.039566 42.03172 -9.871609 -5.798859 42.70277 -9.871609 -5.798859 42.03172 -8.221113 -5.039566 42.70277 -8.221113 -5.039566 42.03172 -7.148988 -4.18103 42.70277 -7.148988 -4.18103 42.03172 -6.354712 -2.861351 42.70277 -5.781805 -0.3389803 42.70277 -5.781805 -0.3389803 42.03172 -6.354712 -2.861351 42.03172 -5.781805 -0.3389803 42.70277 -6.354712 2.170311 42.70277 -6.354712 2.170311 42.03172 -5.781805 -0.3389803 42.03172 -7.095402 3.408936 42.70277 -7.095402 3.408936 42.03172 -8.221111 4.348534 42.70277 -9.87161 5.107826 42.70277 -9.87161 5.107826 42.03172 -8.221111 4.348534 42.03172 -25.0766 5.107857 42.70277 -25.0766 5.107857 42.03172 -26.7271 4.348549 42.70277 -26.7271 4.348549 42.03172 -27.84323 3.56385 42.70277 -27.84323 3.56385 42.03172 -28.62475 2.170311 42.70277 -29.1664 -0.3389803 42.70277 -29.1664 -0.3389803 42.03172 -28.62475 2.170311 42.03172 -29.1664 -0.3389803 42.70277 -29.1664 -0.3389803 42.03172 -5.396276 -10.27007 42.70277 -5.371367 -10.27007 42.03172 -4.214766 -9.756233 42.03172 -4.227221 -9.756233 42.70277 -30.97506 -7.974144 42.03172 -30.51664 -8.307755 42.03172 -30.51664 -8.307755 42.70277 -30.97506 -7.974144 42.70277 -30.97506 -7.974144 42.03172 -32.51641 -7.974144 42.03172 -32.51641 9.208015 42.03172 -29.1664 -0.3389803 42.03172 -29.1664 -0.3389803 42.70277 -28.62475 2.170311 42.70277 -33.07122 9.208015 42.70277 -29.70316 -9.795647 42.03172 -28.80232 -10.27007 42.03172 -28.80232 -10.27007 42.70277 -29.70316 -9.795647 42.70277 -26.7271 -5.039566 42.03172 -25.0766 -5.798859 42.03172 -28.80232 -10.27007 42.03172 -29.70316 -9.795647 42.03172 -28.80232 -10.27007 42.70277 -25.0766 -5.798859 42.70277 -26.7271 -5.039566 42.70277 -29.70316 -9.795647 42.70277 -35.84187 6.686073 -17.06034 -35.84187 3.739166 -19.80363 -35.84187 -0.1801224 -14.9407 -35.84187 2.235863 -13.51916 -35.28706 6.686073 -17.06034 -35.28706 3.739166 -19.80363 -35.84187 3.739166 -19.80363 -35.84187 6.686073 -17.06034 -35.28706 6.686073 -17.06034 -35.28706 8.613716 -14.09842 -35.28706 2.927315 -12.6791 -35.28706 2.235863 -13.51916 -35.84187 2.927315 -12.6791 -35.84187 2.235863 -13.51916 -35.28706 2.235863 -13.51916 -35.28706 2.927315 -12.6791 -35.28706 8.613716 -14.09842 -35.84187 8.613716 -14.09842 -34.94775 -0.1865915 20.32302 -35.07096 2.058728 17.58064 -34.51615 2.058728 17.58064 -34.39294 -0.1865915 20.32302 -35.28706 -2.715492 -17.2023 -35.28706 0.7922516 -21.78499 -35.28706 3.739166 -19.80363 -35.28706 -0.1801224 -14.9407 -35.28706 -3.260956 -20.08632 -35.28706 -2.317642 -21.51625 -35.84187 -2.715492 -17.2023 -35.84187 -3.260956 -20.08632 -35.28706 -3.260956 -20.08632 -35.28706 -2.715492 -17.2023 -33.07122 -7.974144 42.70277 -32.51641 -7.974144 42.03172 -30.17003 -9.23381 42.03172 -30.17003 -9.23381 42.70277 -27.84323 3.56385 42.03172 -28.62475 2.170311 42.03172 -33.07122 9.208015 42.70277 0 9.208015 42.70277 0 9.208015 42.03172 -32.51641 9.208015 42.03172 -9.871609 -5.798859 42.70277 -5.396276 -10.27007 42.70277 -34.50243 -7.974152 29.21098 -33.14374 -7.974145 42.03172 -33.14374 9.208015 42.03172 -34.50243 9.208015 28.02152 -32.51641 9.208015 42.03172 -33.94761 9.208015 28.02152 -34.50243 9.208015 28.02152 -33.14374 9.208015 42.03172 -32.51641 -7.974144 42.03172 -33.94761 -7.974152 29.21098 -33.94761 9.208015 28.02152 -32.51641 9.208015 42.03172 -33.14374 -7.974145 42.03172 -34.50243 -7.974152 29.21098 -33.94761 -7.974152 29.21098 -32.51641 -7.974144 42.03172 -35.07096 2.058728 17.58064 -34.94775 -0.1865915 20.32302 -35.07096 9.208015 17.60541 -35.24412 2.927315 14.56985 -34.6893 2.927315 14.56985 -34.51615 2.058728 17.58064 -34.6893 2.927315 14.56985 -34.51615 9.208015 17.60541 -3.659057 -8.735924 42.03172 -2.135294 -4.103844 42.03172 -2.135294 -4.103844 42.70277 -3.659057 -8.735924 42.70277 -1.067647 -2.415565 42.03172 -6.354712 2.170311 42.03172 -35.84187 -3.260956 -20.08632 -35.84187 -2.715492 -17.2023 -35.84187 0.7922516 -21.78499 -35.84187 -2.317642 -21.51625 -35.84187 -2.317642 -21.51625 -35.28706 -2.317642 -21.51625 -35.28706 0.7922516 -21.78499 -35.84187 0.7922516 -21.78499 -35.84187 -0.1801224 -14.9407 -35.28706 -0.1801224 -14.9407 -35.28706 9.208015 -11.08939 -35.28706 9.208015 -11.08939 -35.84187 9.208015 -11.08939 -34.06132 -7.012741 26.61299 -34.39294 -0.1865915 20.32302 -34.51615 9.208015 17.60541 -35.07096 9.208015 17.60541 -34.61613 -7.012741 26.61299 -34.61613 -7.012741 26.61299 -34.06132 -7.012741 26.61299 -35.84187 9.208015 -11.08939 -35.84187 2.927315 -12.6791 -35.24412 2.927315 14.56985 -35.28706 -2.317642 -21.51625 -35.84187 -2.317642 -21.51625 -35.84187 0.7922516 -21.78499 -35.28706 0.7922516 -21.78499 -1.067647 -2.415565 42.03172 -1.067647 -2.415565 42.70277 -30.17003 -9.23381 42.03172 -30.51664 -8.307755 42.03172 -28.62475 -2.861351 42.03172 -27.72044 -4.132568 42.03172 -30.51664 -8.307755 42.70277 -30.17003 -9.23381 42.70277 -27.72044 -4.132568 42.70277 -28.62475 -2.861351 42.70277 -33.07122 -7.974144 42.70277 -30.97506 -7.974144 42.70277 -27.84323 3.56385 42.70277 -25.0766 5.107857 42.03172 -26.7271 4.348549 42.03172 -26.7271 4.348549 42.70277 -25.0766 5.107857 42.70277 -6.354712 -2.861351 42.03172 -2.135294 -4.103844 42.03172 -3.659057 -8.735924 42.03172 -7.148988 -4.18103 42.03172 -4.227221 -9.756233 42.70277 -8.221113 -5.039566 42.70277 -9.871609 -5.798859 42.03172 -5.371367 -10.27007 42.03172 -7.095402 3.408936 42.70277 -6.354712 2.170311 42.70277 -9.87161 5.107826 42.03172 -9.87161 5.107826 42.70277 -8.221111 4.348534 42.70277 -7.095402 3.408936 42.03172 -8.221111 4.348534 42.03172 -2.135294 -4.103844 42.70277 -1.067647 -2.415565 42.70277 -5.781805 -0.3389803 42.70277 -5.781805 -0.3389803 42.03172 -3.659057 -8.735924 42.70277 -7.148988 -4.18103 42.70277 -8.221113 -5.039566 42.03172 -4.214766 -9.756233 42.03172 -6.354712 -2.861351 42.70277 -35.84187 8.613716 -14.09842 33.14373 -7.974144 42.03172 33.14373 9.208015 42.03172 33.07122 9.208015 42.70277 33.07122 -7.974144 42.70277 33.07122 -7.974144 42.70277 32.51641 -7.974144 42.03172 33.14373 -7.974144 42.03172 32.51641 9.208015 42.03172 33.07122 9.208015 42.70277 33.14373 9.208015 42.03172 -32.51641 9.208015 42.03172 -33.14374 9.208015 42.03172 -33.07122 9.208015 42.70277 -33.07122 -7.974144 42.70277 -33.14374 -7.974145 42.03172 -32.51641 -7.974144 42.03172 -33.14374 9.208015 42.03172 -33.14374 -7.974145 42.03172 -33.07122 -7.974144 42.70277 -33.07122 9.208015 42.70277</float_array>
          <technique_common>
            <accessor count="446" offset="0" source="#meshId0-positions-array" stride="3">
              <param name="X" type="float" />
              <param name="Y" type="float" />
              <param name="Z" type="float" />
            </accessor>
          </technique_common>
        </source>
        <source id="meshId0-normals" name="meshId0-normals">
          <float_array id="meshId0-normals-array" count="1338">-0.9160924 0.4009671 0 -0.9160924 0.4009671 0 -0.7542373 0.6566019 0 -0.7542373 0.6566019 0 -0.5526835 0.8333912 0 -0.5526835 0.8333912 0 -0.2139184 0.9768515 0 -0.2139184 0.9768515 0 0.2139193 0.9768513 0 0.2139193 0.9768513 0 0.5254059 0.8508518 0 0.5254059 0.8508518 0 0.7526703 0.6583977 0 0.7526703 0.6583977 0 0.9277094 0.3733029 0 0.9277094 0.3733029 0 0.9999998 -0.0005630509 0 0.9999998 -0.0005630509 0 0.9999998 -0.0005630509 0 0.9999998 -0.0005630509 0 0.9280308 -0.3725034 0 0.9280308 -0.3725034 0 0.7602446 -0.649637 0 0.7602446 -0.649637 0 0.5340198 -0.845472 0 0.5340198 -0.845472 0 0.2139198 -0.9768512 0 0.2139198 -0.9768512 0 -0.2139216 -0.9768508 0 -0.2139216 -0.9768508 0 -0.4985933 -0.866836 0 -0.4985933 -0.866836 0 -0.7478648 -0.663851 0 -0.7478648 -0.663851 0 -0.9361864 -0.3515037 0 -0.9361864 -0.3515037 0 -0.9999998 -0.0005625463 0 -0.9999998 -0.0005625463 0 -0.9999998 -0.0005625463 0 -0.9999998 -0.0005625463 0 -0.2065341 -0.9784225 0.005749376 -0.6755331 -0.7372587 0.010227 -0.6755331 -0.7372587 0.010227 -0.2065341 -0.9784225 0.005749376 0.3093897 -0.9509354 4.108581E-07 0.3093897 -0.9509354 4.108581E-07 0.7961338 -0.6051206 0 0.7961338 -0.6051206 0 1.647045E-06 0 -1 2.564274E-06 0 -1 6.930723E-07 0 -1 -1.760745E-06 0 -1 8.424724E-07 0 1 1.247453E-07 8.054563E-08 1 0 0 1 0.6296394 -0.7768875 0 0.6296394 -0.7768875 0 0.2399999 -0.9707729 0 0.2399999 -0.9707729 0 -1.964242E-06 0 -1 -1.964242E-06 0 -1 -5.996076E-07 0 -1 -5.996076E-07 0 -1 -8.70986E-07 -8.281936E-09 1 -1.47111E-06 0 1 -1.47111E-06 0 1 -8.70986E-07 -8.281936E-09 1 1 -3.389608E-07 0 1 -3.389608E-07 0 1 1.754672E-07 -2.956027E-07 1 1.754672E-07 -2.956027E-07 0 0.7654509 -0.6434944 0 0.7654509 -0.6434944 0 0.6215969 -0.7833374 0 0.6215969 -0.7833374 -1 7.831217E-07 6.059505E-07 -1 7.831217E-07 6.059505E-07 -0.9999655 -0.001591314 -0.008152928 -1 5.922145E-07 2.151134E-07 0 -0.9413008 0.337569 0 -0.9413008 0.337569 0 -0.6495429 0.7603249 0 -0.6495429 0.7603249 0 0.9264336 -0.3764583 0 0.9264336 -0.3764583 0 -0.7274739 -0.6861352 0 -0.7274739 -0.6861352 0 -0.8853881 -0.4648525 0 -0.8853881 -0.4648525 -1 -3.663744E-07 7.10982E-07 -1 -1.754672E-07 5.787726E-07 -1 -1.754672E-07 5.787726E-07 -1 -3.663744E-07 7.10982E-07 -1 0 9.198218E-07 -1 0 9.198218E-07 0 -0.8704574 0.4922437 0 -0.8704574 0.4922437 0 -0.9804389 -0.1968235 0 -0.9804389 -0.1968235 0 -1 1.075199E-07 0 -1 1.075199E-07 0.8649501 -0.5018578 0 0.8649501 -0.5018578 0 2.99377E-07 0 -1 3.264237E-06 0 -1 0 1 -1.132718E-06 0 1 -1.132718E-06 0 1 0 0 1 0 6.082687E-07 -8.281936E-09 1 6.082687E-07 -8.281936E-09 1 0.9973378 0.00329841 0.07284608 0.99776 0.003008892 0.06682947 0.9949045 0.003487781 0.1007619 0.9949045 0.003487781 0.1007619 0 1 0 0 1 0 0 1 0 0 1 0 -0.9943509 -0.003671855 -0.1060803 -0.9943509 -0.003671855 -0.1060803 -0.9976391 -0.003070561 -0.06860715 -0.9971392 -0.003390749 -0.07551222 0 -1 6.292411E-07 0 -1 6.292411E-07 0 -0.9843385 -0.176289 0 -0.9843385 -0.176289 0.9986957 -0.000176868 0.05105865 0.9989699 0.001712853 0.0453455 0.9987599 0.001137363 0.04977505 0 -0.9901555 -0.1399721 0 -0.9901555 -0.1399721 -0.9986957 0.000176868 -0.05105865 -0.9989699 -0.001712926 -0.04534552 -0.9991601 -0.00228838 -0.04091451 -0.9168694 -0.3991664 0.004081829 -0.9168694 -0.3991664 0.004081829 -0.9043888 -0.4267094 0 -0.9043888 -0.4267094 0 -3.353212E-08 0 -1 -1.554973E-06 0 -1 6.433581E-07 0 -1 1 -9.077474E-07 9.028684E-08 1 -9.077474E-07 9.028684E-08 1 -8.749936E-08 -2.504593E-07 1 -8.749936E-08 -2.504593E-07 0 -0.8347277 -0.5506629 0 -0.8347277 -0.5506629 0 0.5579616 -0.8298669 0 0.5579616 -0.8298669 0 -0.5892359 0.807961 0 -0.5892359 0.807961 -0.9999225 -0.002387584 -0.01222978 0 0.9952509 -0.09734373 0 0.9952509 -0.09734373 -0.9987537 -0.002768281 -0.04983395 -0.9987599 -0.001137509 -0.04977505 0 1 -1.497583E-08 0 1 -1.497583E-08 0.9987537 0.002768135 0.04983395 0 -0.8307493 -0.5566466 0 -0.8307493 -0.5566466 0.9991601 0.00228838 0.04091447 0.9999655 0.00159161 0.008153051 0.9999224 0.002387584 0.01222968 0 -0.08609324 -0.9962871 0 -0.08609324 -0.9962871 0 -0.08609324 -0.9962871 0 -0.08609324 -0.9962871 -0.6658615 -0.7460754 0 -0.6658615 -0.7460754 0 3.328427E-07 0 -1 3.328427E-07 0 -1 4.224894E-06 0 -1 4.224894E-06 0 -1 9.242131E-07 0 1 9.242131E-07 0 1 -8.512335E-07 0 1 -8.512335E-07 0 1 1.263709E-06 0 1 0 0 1 0 0 1 4.608456E-07 0 -1 -3.046475E-07 0 -1 2.971484E-07 0 1 3.74236E-07 2.416369E-07 1 3.858247E-07 0 -1 3.858247E-07 0 -1 3.858247E-07 0 -1 2.572165E-07 0 -1 1.041212E-06 0 1 1.041212E-06 0 1 8.333309E-07 0 -1 8.333309E-07 0 -1 1.943716E-07 2.341218E-07 1 4.085798E-07 2.13013E-08 1 1.16623E-06 2.707003E-07 1 0 0 -1 0 3.834427E-07 1 7.708758E-08 4.623562E-07 1 1.156415E-06 0 -1 -1.176045E-06 0 -1 -2.035895E-07 2.118149E-08 1 -3.053842E-07 -1.415695E-07 1 -3.689067E-07 -5.068333E-08 1 0 0 -1 0 -1 0 0 -1 0 9.650371E-07 0 -1 0 0 1 5.213296E-07 1.733417E-07 1 5.213296E-07 1.733417E-07 1 8.333309E-07 0 -1 8.333309E-07 0 -1 -6.71911E-07 7.710615E-08 1 1 -1.480537E-07 0 0.9160924 0.4009671 0 0.7542373 0.6566019 0 0.7542373 0.6566019 0 0.9160924 0.4009671 0 0.5526835 0.8333912 0 0.2139184 0.9768515 0 0.2139184 0.9768515 0 0.5526835 0.8333912 0 -0.2139193 0.9768513 0 -0.2139193 0.9768513 0 -0.5254059 0.8508518 0 -0.5254059 0.8508518 0 -0.7526703 0.6583977 0 -0.7526703 0.6583977 0 -0.9277094 0.3733029 0 -0.9999998 -0.0005630509 0 -0.9999998 -0.0005630509 0 -0.9277094 0.3733029 0 -0.9999998 -0.0005630509 0 -0.9280308 -0.3725034 0 -0.9280308 -0.3725034 0 -0.9999998 -0.0005630509 0 -0.7602446 -0.649637 0 -0.7602446 -0.649637 0 -0.5340198 -0.845472 0 -0.2139198 -0.9768512 0 -0.2139198 -0.9768512 0 -0.5340198 -0.845472 0 0.2139216 -0.9768508 0 0.2139216 -0.9768508 0 0.4985933 -0.866836 0 0.4985933 -0.866836 0 0.7478648 -0.663851 0 0.7478648 -0.663851 0 0.9361864 -0.3515037 0 0.9999998 -0.0005625463 0 0.9999998 -0.0005625463 0 0.9361864 -0.3515037 0 0.9999998 -0.0005625463 0 0.9999998 -0.0005625463 0 0.2065341 -0.9784225 0.005749465 0.2065341 -0.9784225 0.005749465 0.6755331 -0.7372587 0.01022711 0.6755331 -0.7372587 0.01022711 -0.3093897 -0.9509354 0 -0.7961338 -0.6051206 0 -0.7961338 -0.6051206 0 -0.3093897 -0.9509354 0 1.695363E-07 0 -1 1.760745E-06 0 -1 -4.026113E-07 0 -1 -1.35322E-06 0 -1 -1.440112E-06 0 1 0 0 1 2.189629E-07 8.054563E-08 1 -0.6296394 -0.7768875 0 -0.2399999 -0.9707729 0 -0.2399999 -0.9707729 0 -0.6296394 -0.7768875 0 2.324007E-06 0 -1 9.593723E-07 0 -1 9.593723E-07 0 -1 2.324007E-06 0 -1 3.153546E-08 -8.281938E-09 1 3.153546E-08 -8.281938E-09 1 1.199215E-07 0 1 1.199215E-07 0 1 -1 -3.077876E-07 0 -1 -1.543989E-08 -2.956027E-07 -1 -1.543989E-08 -2.956027E-07 -1 -3.077876E-07 0 0 0.765451 -0.6434943 0 0.6215969 -0.7833373 0 0.6215969 -0.7833373 0 0.765451 -0.6434943 1 9.740288E-07 6.059504E-07 1 5.922145E-07 2.151134E-07 0.9999655 -0.001591271 -0.008152929 1 9.740288E-07 6.059504E-07 0 -0.9413008 0.337569 0 -0.6495429 0.7603249 0 -0.6495429 0.7603249 0 -0.9413008 0.337569 0 0.9264336 -0.3764583 0 0.9264336 -0.3764583 0 -0.7274739 -0.6861352 0 -0.8853881 -0.4648525 0 -0.8853881 -0.4648525 0 -0.7274739 -0.6861352 1 -1.831872E-07 7.109818E-07 1 -1.831872E-07 7.109818E-07 1 1.986271E-07 5.787726E-07 1 1.986271E-07 5.787726E-07 1 0 9.198213E-07 1 0 9.198213E-07 0 -0.8704574 0.4922437 0 -0.9804389 -0.1968235 0 -0.9804389 -0.1968235 0 -0.8704574 0.4922437 7.60105E-07 -1 0 7.60105E-07 -1 0 -0.8649501 -0.5018578 0 -0.8649501 -0.5018578 0 1.111599E-07 0 -1 -3.619193E-06 0 -1 0 1 -8.667325E-08 0 1 -1.733465E-07 0 1 -1.733465E-07 0 1 -8.667325E-08 -9.201984E-07 -8.281938E-09 1 -9.201984E-07 -8.281938E-09 1 -0.9973378 0.003298377 0.07284593 -0.9949045 0.003487716 0.1007617 -0.9949045 0.003487716 0.1007617 -0.99776 0.00300887 0.06682936 0 1 5.758182E-08 0 1 2.879091E-08 0 1 2.879091E-08 0 1 5.758182E-08 0.9943509 -0.003671855 -0.1060803 0.9971392 -0.003390749 -0.07551221 0.9976391 -0.003070573 -0.06860714 0.9943509 -0.003671855 -0.1060803 8.067336E-07 -1 5.66317E-07 4.097847E-07 -0.9843385 -0.176289 4.097847E-07 -0.9843385 -0.176289 8.067336E-07 -1 5.66317E-07 -0.9986957 -0.0001767559 0.05105864 -0.9987599 0.001137475 0.04977503 -0.9989699 0.001712996 0.04534549 0 -0.9901555 -0.1399721 0 -0.9901555 -0.1399721 0.9986957 0.0001769316 -0.05105867 0.9991601 -0.002288252 -0.04091451 0.9989699 -0.00171287 -0.04534552 0.9168694 -0.3991664 0.004081848 0.9043888 -0.4267094 0 0.9043888 -0.4267094 0 0.9168694 -0.3991664 0.004081848 0 0 -1 7.774865E-07 0 -1 -1 -9.077471E-07 9.02868E-08 -1 -8.749907E-08 -2.504594E-07 -1 -8.749907E-08 -2.504594E-07 -1 -9.077471E-07 9.02868E-08 0 -0.8347277 -0.5506629 0 -0.8347277 -0.5506629 0 0.5579616 -0.8298669 0 0.5579616 -0.8298669 0 -0.5892359 0.807961 0 -0.5892359 0.807961 0.9999224 -0.002387519 -0.01222978 0 0.9952509 -0.09734373 0 0.9952509 -0.09734373 0.9987537 -0.002768298 -0.04983394 0.9987599 -0.001137527 -0.04977508 0 1 -1.497583E-08 0 1 -1.497583E-08 -0.9987537 0.002768135 0.04983393 0 -0.8307493 -0.5566466 0 -0.8307493 -0.5566466 -0.9999224 0.002387758 0.01222968 -0.9999655 0.001591874 0.008153051 -0.9991601 0.002288554 0.04091448 0 -0.08609324 -0.9962871 0 -0.08609324 -0.9962871 0 -0.08609324 -0.9962871 0 -0.08609324 -0.9962871 0.6658615 -0.7460754 0 0.6658615 -0.7460754 0 6.652954E-09 0 -1 -2.068818E-06 0 -1 -2.068818E-06 0 -1 6.652954E-09 0 -1 -2.527417E-06 0 1 0 0 1 0 0 1 -2.527417E-06 0 1 7.34498E-07 0 1 -2.160168E-06 0 1 3.667272E-07 0 1 0 0 -1 1.530987E-06 0 -1 3.667272E-07 0 1 -7.708758E-08 2.416369E-07 1 -5.93172E-07 0 -1 -3.95448E-07 0 -1 -2.572164E-07 0 -1 -2.572164E-07 0 -1 2.108467E-07 0 1 2.108467E-07 0 1 -6.249983E-07 0 -1 -6.249983E-07 0 -1 0 2.707003E-07 1 6.132579E-07 2.13013E-08 1 0 0 -1 -7.708758E-08 4.623562E-07 1 0 3.834427E-07 1 9.814812E-09 0 -1 -1.156415E-06 0 -1 0 2.118148E-08 1 6.132579E-07 -5.068333E-08 1 0 -1.415695E-07 1 -3.359555E-07 0 -1 1.042659E-06 1.733417E-07 1 1.042659E-06 1.733417E-07 1 -6.249983E-07 0 -1 -6.249983E-07 0 -1 0 7.710614E-08 1 -1 7.40268E-08 0 0.9942128 0 0.1074288 0.9942128 0 0.1074288 0.9942128 0 0.1074288 0.9942128 0 0.1074288 0 -1 1.075199E-07 0 -1 1.075199E-07 0 -1 -5.663592E-07 0 1 -1.132718E-06 0 1 -1.132718E-06 0 1 -2.265437E-06 0 1 -8.667325E-08 0 1 0 0 1 -8.667325E-08 7.60105E-07 -1 0 1.52021E-06 -1 0 7.60105E-07 -1 0 -0.9942123 0 0.1074339 -0.9942123 0 0.1074339 -0.9942123 0 0.1074339 -0.9942123 0 0.1074339</float_array>
          <technique_common>
            <accessor count="446" offset="0" source="#meshId0-normals-array" stride="3">
              <param name="X" type="float" />
              <param name="Y" type="float" />
              <param name="Z" type="float" />
            </accessor>
          </technique_common>
        </source>
        <source id="meshId0-tex0" name="meshId0-tex0">
          <float_array id="meshId0-tex0-array" count="892">0.5815684 0.009077191 0.5815684 0.0199219 0.5669568 0.0199219 0.5669568 0.009077191 0.5503323 0.009077191 0.5503323 0.0199219 0.5227095 0.0199219 0.5227095 0.009077191 0.2218689 0.01992202 0.2218689 0.009077132 0.1942462 0.01992202 0.1942462 0.009077132 0.1763031 0.01992202 0.1763031 0.009077132 0.1630101 0.009077132 0.1630101 0.01992202 0.1534219 0.01992202 0.1534219 0.009077132 0.1534219 0.02820987 0.1534219 0.03905475 0.1630101 0.03905475 0.1630101 0.02820987 0.1754063 0.03905475 0.1754063 0.02820987 0.1942461 0.02820987 0.1942461 0.03905475 0.2218689 0.03905475 0.2218689 0.02820987 0.5227095 0.03905463 0.5227095 0.02820992 0.5503323 0.03905463 0.5503323 0.02820992 0.5690118 0.03905463 0.5690118 0.02820992 0.5815684 0.02820992 0.5815684 0.03905463 0.5911565 0.03905463 0.5911565 0.02820992 0.5911565 0.009077191 0.5911565 0.0199219 0.201693 0.04398447 0.1955661 0.04398447 0.1955661 0.05329645 0.201693 0.05329645 0.3520012 0.05329645 0.3520012 0.04398447 0.3495728 0.04398447 0.3495728 0.05329645 0.3520012 0.06868476 0.3424202 0.1130184 0.3579907 0.1675488 0.3579907 0.06868476 0.8886889 0.4166074 0.9673242 0.6239079 0.878128 0.4821821 0.3452636 0.05329645 0.3452636 0.04398447 0.3404914 0.04398447 0.3404914 0.05329645 0.3294984 0.08423018 0.3452636 0.05903566 0.3404914 0.05652261 0.3207551 0.08020794 0.8813567 0.2018353 0.899498 0.211389 0.8395658 0.3071673 0.806328 0.2918767 0.9244856 0.9355506 0.8704472 0.8676404 0.8921399 0.8307723 0.9663481 0.8905809 0.9244856 0.9874324 0.9244856 0.9740355 0.9663481 0.9740355 0.9663481 0.9874324 0.6741236 0.1544092 0.6553164 0.1307743 0.650855 0.1344466 0.6583928 0.1646468 0.8576276 0.8781921 0.8576276 0.8698776 0.8704472 0.8593259 0.8704472 0.8676404 0.8792865 0.9874324 0.8792865 0.9740355 0.349919 0.8144131 0.349919 0.8060986 0.3958637 0.8528022 0.3958637 0.8611166 0.6748776 0.1044779 0.6628663 0.1179431 0.6886929 0.1387583 0.6992157 0.1231073 0.6977884 0.1065909 0.6901943 0.101581 0.9266517 0.7920827 0.9266517 0.7837682 0.970662 0.7754444 0.970662 0.7837589 0.3601662 0.04398447 0.3601662 0.05329645 0.3477367 0.04398447 0.3477367 0.05329645 0.3354108 0.1376499 0.3393853 0.1302679 0.9673242 0.6239079 0.9590098 0.6400669 0.2455376 0.6390845 0.2455376 0.6239079 0.4443329 0.2918767 0.3542083 0.2018353 0.2183844 0.6892376 0.2365357 0.9740355 0.02095816 0.9740355 0.02095816 0.6892377 0.02095816 0.9874324 0.02095816 0.9740356 0.2365357 0.9740355 0.2365357 0.9874324 0.3607287 0.06868476 0.3607287 0.167803 0.4426206 0.167803 0.4363034 0.06868476 0.02095816 0.6892377 0.02095816 0.6809233 0.2183844 0.6809234 0.2183844 0.6892378 0.3958637 0.8611166 0.3954856 0.9740355 0.349919 0.8144131 0.4418083 0.8698776 0.4418083 0.8781921 0.4980716 0.1285038 0.4979401 0.167803 0.5140617 0.1344466 0.1926223 0.05329645 0.1926223 0.04398447 0.1845504 0.04398447 0.1845504 0.05329645 0.1732391 0.1675488 0.2069021 0.1302679 0.1788948 0.1059749 0.970662 0.7837589 0.9924828 0.798154 0.9965837 0.8456108 0.9266517 0.7920827 0.996637 0.7940786 0.9924828 0.798154 0.9965837 0.9740355 0.9965837 0.9874324 0.8921399 0.8307723 0.8921399 0.8224578 0.6424121 0.167803 0.8333688 0.9874324 0.8333688 0.9740355 0.450102 0.07995766 0.4820815 0.1122496 0.3954856 0.9740355 0.3954856 0.9874324 0.2580299 0.7216284 0.2580299 0.7216284 0.2580299 0.713314 0.4418083 0.8781921 0.8576276 0.8781921 0.8333688 0.9740355 0.996637 0.7940786 0.9993814 0.8456107 0.9965836 0.8456108 0.9924828 0.798154 0.1788948 0.04398447 0.1788948 0.05329645 0.3477367 0.06201196 0.3347604 0.08903491 0.3393853 0.09576893 0.3495728 0.06691754 0.9158799 0.2413524 0.878128 0.3510327 0.8595697 0.3254327 0.9089001 0.2227035 0.9251116 0.2480707 0.9673242 0.2480707 0.8620424 0.5102453 0.3207551 0.145829 0.3294984 0.1418067 0.8395658 0.5260478 0.806328 0.5413387 0.2069021 0.09576893 0.2111096 0.08877814 0.1926223 0.0646494 0.1845504 0.09703159 0.4110949 0.3071673 0.3306658 0.2121827 0.201693 0.05652261 0.2255323 0.08020794 0.2455376 0.6239079 0.3735092 0.4821821 0.3884252 0.5071258 0.2255323 0.1458288 0.4110951 0.5260475 0.4443329 0.541338 0.216789 0.1418066 0.2108258 0.1368293 0.2885382 0.3558327 0.3619723 0.4166074 0.2670378 0.3898312 0.2038673 0.1130184 0.1732391 0.04398447 0.1732391 0.05329645 0.1732391 0.1087097 0.2455376 0.4002275 0.3895045 0.3244567 0.3192239 0.23273 0.1955661 0.05924445 0.216789 0.08423018 0.3735092 0.3510327 0.8792865 0.9649667 0.5815684 0.009077191 0.5669568 0.009077191 0.5669568 0.0199219 0.5815684 0.0199219 0.5503323 0.009077191 0.5227095 0.009077191 0.5227095 0.0199219 0.5503323 0.0199219 0.2218689 0.009077132 0.2218689 0.01992202 0.1942462 0.009077132 0.1942462 0.01992202 0.1763031 0.009077132 0.1763031 0.01992202 0.1630101 0.009077132 0.1534219 0.009077132 0.1534219 0.01992202 0.1630101 0.01992202 0.1534219 0.02820987 0.1630101 0.02820987 0.1630101 0.03905475 0.1534219 0.03905475 0.1754063 0.02820987 0.1754063 0.03905475 0.1942461 0.02820987 0.2218689 0.02820987 0.2218689 0.03905475 0.1942461 0.03905475 0.5227095 0.02820992 0.5227095 0.03905463 0.5503323 0.02820992 0.5503323 0.03905463 0.5690118 0.02820992 0.5690118 0.03905463 0.5815684 0.02820992 0.5911565 0.02820992 0.5911565 0.03905463 0.5815684 0.03905463 0.5911565 0.009077191 0.5911565 0.0199219 0.201693 0.04398447 0.201693 0.05329645 0.1955661 0.05329645 0.1955661 0.04398447 0.3520012 0.05329645 0.3495728 0.05329645 0.3495728 0.04398447 0.3520012 0.04398447 0.3520012 0.06868476 0.3579907 0.06868476 0.3579907 0.1675488 0.3424202 0.1130184 0.8886889 0.4166074 0.878128 0.4821821 0.9673242 0.6239079 0.3452636 0.05329645 0.3404914 0.05329645 0.3404914 0.04398447 0.3452636 0.04398447 0.3294984 0.08423018 0.3207551 0.08020794 0.3404914 0.05652261 0.3452636 0.05903566 0.8813567 0.2018353 0.806328 0.2918767 0.8395658 0.3071673 0.899498 0.211389 0.9244856 0.9355506 0.9663481 0.8905809 0.8921399 0.8307723 0.8704472 0.8676404 0.9244856 0.9874324 0.9663481 0.9874324 0.9663481 0.9740355 0.9244856 0.9740355 0.6741236 0.1544092 0.6583928 0.1646468 0.650855 0.1344466 0.6553164 0.1307743 0.8576276 0.8781921 0.8704472 0.8676404 0.8704472 0.8593259 0.8576276 0.8698776 0.8792865 0.9874324 0.8792865 0.9740355 0.349919 0.8144131 0.3958637 0.8611166 0.3958637 0.8528022 0.349919 0.8060986 0.6748776 0.1044779 0.6992157 0.1231073 0.6886929 0.1387583 0.6628663 0.1179431 0.6901943 0.101581 0.6977884 0.1065909 0.9266517 0.7920827 0.970662 0.7837589 0.970662 0.7754444 0.9266517 0.7837682 0.3601662 0.04398447 0.3601662 0.05329645 0.3477367 0.05329645 0.3477367 0.04398447 0.3354108 0.1376499 0.3393853 0.1302679 0.9673242 0.6239079 0.2455376 0.6239079 0.2455376 0.6390845 0.9590098 0.6400669 0.4443329 0.2918767 0.3542083 0.2018353 0.2183844 0.6892376 0.02095816 0.6892377 0.02095816 0.9740355 0.2365357 0.9740355 0.02095816 0.9874324 0.2365357 0.9874324 0.2365357 0.9740355 0.02095816 0.9740356 0.3607287 0.06868476 0.4363034 0.06868476 0.4426206 0.167803 0.3607287 0.167803 0.02095816 0.6892377 0.2183844 0.6892378 0.2183844 0.6809234 0.02095816 0.6809233 0.3958637 0.8611166 0.349919 0.8144131 0.3954856 0.9740355 0.4418083 0.8781921 0.4418083 0.8698776 0.4980716 0.1285038 0.5140617 0.1344466 0.4979401 0.167803 0.1926223 0.05329645 0.1845504 0.05329645 0.1845504 0.04398447 0.1926223 0.04398447 0.1788948 0.1059749 0.2069021 0.1302679 0.970662 0.7837589 0.9266517 0.7920827 0.9965837 0.8456108 0.9924828 0.798154 0.9924828 0.798154 0.996637 0.7940786 0.9965837 0.9874324 0.9965837 0.9740355 0.8921399 0.8307723 0.8921399 0.8224578 0.6424121 0.167803 0.8333688 0.9874324 0.8333688 0.9740355 0.450102 0.07995766 0.4820815 0.1122496 0.3954856 0.9874324 0.3954856 0.9740355 0.2580299 0.7216284 0.2580299 0.7216284 0.2580299 0.713314 0.8333688 0.9740355 0.8576276 0.8781921 0.4418083 0.8781921 0.996637 0.7940786 0.9924828 0.798154 0.9965836 0.8456108 0.9993814 0.8456107 0.1788948 0.05329645 0.1788948 0.04398447 0.3477367 0.06201196 0.3495728 0.06691754 0.3393853 0.09576893 0.3347604 0.08903491 0.9158799 0.2413524 0.9089001 0.2227035 0.8595697 0.3254327 0.878128 0.3510327 0.9673242 0.2480707 0.9251116 0.2480707 0.8620424 0.5102453 0.3207551 0.145829 0.3294984 0.1418067 0.8395658 0.5260478 0.806328 0.5413387 0.2069021 0.09576893 0.1845504 0.09703159 0.1926223 0.0646494 0.2111096 0.08877814 0.3306658 0.2121827 0.4110949 0.3071673 0.2255323 0.08020794 0.201693 0.05652261 0.3884252 0.5071258 0.3735092 0.4821821 0.2255323 0.1458288 0.4443329 0.541338 0.4110951 0.5260475 0.2108258 0.1368293 0.216789 0.1418066 0.2885382 0.3558327 0.2670378 0.3898312 0.3619723 0.4166074 0.2038673 0.1130184 0.3192239 0.23273 0.3895045 0.3244567 0.216789 0.08423018 0.1955661 0.05924445 0.3735092 0.3510327 0.8792865 0.9649667 0.02095816 0.6892377 0.02095816 0.9740355 0.01098044 0.9740355 0.01098044 0.6892377 0.01098046 0.6892377 0.02095819 0.6809233 0.02095816 0.6892377 0.02095816 0.9874324 0.01098044 0.9740355 0.02095816 0.9740356 0.02095816 0.9874324 0.02095816 0.9740356 0.01098044 0.9740355 0.01098046 0.6892377 0.02095816 0.6892377 0.02095819 0.6809233 0.02095816 0.9740355 0.02095816 0.6892377 0.01098044 0.6892377 0.01098044 0.9740355</float_array>
          <technique_common>
            <accessor count="446" offset="0" source="#meshId0-tex0-array" stride="2">
              <param name="S" type="float" />
              <param name="T" type="float" />
            </accessor>
          </technique_common>
        </source>
        <vertices id="meshId0-vertices">
          <input semantic="POSITION" source="#meshId0-positions" />
        </vertices>
        <polylist count="404" material="defaultMaterial">
          <input offset="0" semantic="VERTEX" source="#meshId0-vertices" />
          <input offset="0" semantic="NORMAL" source="#meshId0-normals" />
          <input offset="0" semantic="TEXCOORD" source="#meshId0-tex0" />
          <vcount>3 3 3 3 3 3 3 3 3 3 3 3 3 3 3 3 3 3 3 3 3 3 3 3 3 3 3 3 3 3 3 3 3 3 3 3 3 3 3 3 3 3 3 3 3 3 3 3 3 3 3 3 3 3 3 3 3 3 3 3 3 3 3 3 3 3 3 3 3 3 3 3 3 3 3 3 3 3 3 3 3 3 3 3 3 3 3 3 3 3 3 3 3 3 3 3 3 3 3 3 3 3 3 3 3 3 3 3 3 3 3 3 3 3 3 3 3 3 3 3 3 3 3 3 3 3 3 3 3 3 3 3 3 3 3 3 3 3 3 3 3 3 3 3 3 3 3 3 3 3 3 3 3 3 3 3 3 3 3 3 3 3 3 3 3 3 3 3 3 3 3 3 3 3 3 3 3 3 3 3 3 3 3 3 3 3 3 3 3 3 3 3 3 3 3 3 3 3 3 3 3 3 3 3 3 3 3 3 3 3 3 3 3 3 3 3 3 3 3 3 3 3 3 3 3 3 3 3 3 3 3 3 3 3 3 3 3 3 3 3 3 3 3 3 3 3 3 3 3 3 3 3 3 3 3 3 3 3 3 3 3 3 3 3 3 3 3 3 3 3 3 3 3 3 3 3 3 3 3 3 3 3 3 3 3 3 3 3 3 3 3 3 3 3 3 3 3 3 3 3 3 3 3 3 3 3 3 3 3 3 3 3 3 3 3 3 3 3 3 3 3 3 3 3 3 3 3 3 3 3 3 3 3 3 3 3 3 3 3 3 3 3 3 3 3 3 3 3 3 3 3 3 3 3 3 3 3 3 3 3 3 3 3 3 3 3 3 3 3 3 3 3 3 3 3 3 3 3 3 3 3 3 3 3 3 3 3 3 3 3 3 3 3 3 3 3 3 3 3 3 3 3 3 3</vcount>
          <p>0 1 2 2 3 0 4 5 6 6 7 4 7 6 8 8 9 7 9 8 10 10 11 9 11 10 12 12 13 11 14 15 16 16 17 14 18 19 20 20 21 18 21 20 22 22 23 21 24 25 26 26 27 24 27 26 28 28 29 27 29 28 30 30 31 29 31 30 32 32 33 31 34 35 36 36 37 34 38 39 1 1 0 38 40 41 42 42 43 40 44 45 46 46 47 44 48 49 50 50 51 48 52 53 54 55 56 57 57 58 55 59 60 61 61 62 59 63 64 65 65 66 63 67 68 69 69 70 67 71 72 73 73 74 71 75 76 77 77 78 75 79 80 81 81 82 79 83 84 72 72 71 83 85 86 87 87 88 85 89 90 91 91 92 89 89 92 93 93 94 89 95 96 97 97 98 95 99 45 44 44 100 99 47 46 101 101 102 47 58 57 40 40 43 58 103 50 104 105 106 107 107 108 105 109 110 63 63 66 109 111 112 113 113 114 111 115 116 117 117 118 115 119 120 121 121 122 119 123 124 125 125 126 123 127 128 129 88 87 130 130 131 88 132 133 134 135 136 137 137 138 135 139 140 141 142 143 144 144 145 142 98 97 146 146 147 98 74 73 148 148 149 74 70 69 145 145 144 70 150 151 96 96 95 150 77 152 78 153 154 84 84 83 153 155 121 133 133 156 155 118 117 157 157 158 118 129 128 112 112 159 129 160 161 86 86 85 160 159 112 111 122 121 155 126 125 161 161 160 126 128 162 163 163 164 128 131 130 80 80 79 131 153 158 157 157 154 153 165 166 167 167 168 165 134 133 152 152 77 134 138 137 169 169 170 138 171 172 173 173 174 171 175 176 177 177 178 175 53 52 179 179 180 53 50 49 104 179 52 176 176 175 179 48 174 173 173 49 48 53 181 54 182 50 183 184 53 185 186 187 188 188 189 186 110 109 190 190 191 110 62 61 192 192 193 62 194 195 196 50 182 197 197 139 50 194 198 199 139 200 201 194 199 185 185 53 194 139 197 200 202 203 195 195 204 202 186 189 205 170 169 206 206 207 170 208 139 141 194 209 204 162 128 127 156 133 132 204 195 194 141 140 205 205 189 141 42 41 136 136 135 42 191 190 210 210 211 191 192 212 213 213 193 192 203 202 214 13 12 15 15 14 13 211 210 214 214 202 211 187 213 212 212 188 187 23 22 25 25 24 23 194 196 198 139 201 140 33 32 35 35 34 33 3 2 5 5 4 3 178 177 65 65 64 178 102 101 56 56 55 102 60 59 172 172 171 60 184 181 53 183 50 103 163 215 164 82 81 151 151 150 82 163 68 67 67 215 163 76 75 91 91 90 76 216 217 218 218 219 216 220 221 222 222 223 220 221 224 225 225 222 221 224 226 227 227 225 224 226 228 229 229 227 226 230 231 232 232 233 230 234 235 236 236 237 234 235 238 239 239 236 235 240 241 242 242 243 240 241 244 245 245 242 241 244 246 247 247 245 244 246 248 249 249 247 246 250 251 252 252 253 250 254 216 219 219 255 254 256 257 258 258 259 256 260 261 262 262 263 260 264 265 266 266 267 264 268 269 270 271 272 273 273 274 271 275 276 277 277 278 275 279 280 281 281 282 279 283 284 285 285 286 283 287 288 289 289 290 287 291 292 293 293 294 291 295 296 297 297 298 295 299 287 290 290 300 299 301 302 303 303 304 301 305 306 307 307 308 305 305 309 310 310 306 305 311 312 313 313 314 311 315 316 260 260 263 315 261 317 318 318 262 261 272 257 256 256 273 272 319 320 266 321 322 323 323 324 321 325 280 279 279 326 325 327 328 329 329 330 327 331 332 333 333 334 331 335 336 337 337 338 335 339 340 341 341 342 339 343 344 345 302 346 347 347 303 302 348 349 350 351 352 353 353 354 351 139 355 356 357 358 359 359 360 357 312 361 362 362 313 312 288 363 364 364 289 288 284 359 358 358 285 284 365 311 314 314 366 365 293 292 367 368 299 300 300 369 368 370 371 350 350 337 370 332 372 373 373 333 332 344 374 330 330 345 344 375 301 304 304 376 375 374 327 330 336 370 337 340 375 376 376 341 340 345 377 378 378 379 345 346 295 298 298 347 346 368 369 373 373 372 368 380 381 382 382 383 380 349 293 367 367 350 349 352 384 385 385 353 352 386 387 388 388 389 386 390 391 392 392 393 390 270 394 395 395 268 270 266 320 267 395 390 393 393 268 395 264 267 388 388 387 264 270 269 396 397 398 266 399 400 270 401 402 403 403 404 401 326 405 406 406 325 326 276 407 408 408 277 276 194 409 410 266 139 411 411 397 266 194 412 413 139 414 415 194 270 400 400 412 194 139 415 411 416 417 410 410 418 416 401 419 402 384 207 206 206 385 384 208 355 139 194 417 209 379 343 345 371 348 350 417 194 410 355 402 419 419 356 355 258 351 354 354 259 258 405 420 421 421 406 405 408 407 422 422 423 408 418 424 416 228 230 233 233 229 228 420 416 424 424 421 420 404 403 423 423 422 404 238 240 243 243 239 238 194 413 409 139 356 414 248 250 253 253 249 248 217 220 223 223 218 217 391 282 281 281 392 391 317 271 274 274 318 317 278 386 389 389 275 278 399 270 396 398 319 266 378 377 425 296 365 366 366 297 296 378 425 283 283 286 378 294 308 307 307 291 294 426 427 428 428 429 426 430 431 432 433 434 435 436 437 438 439 440 441 442 443 444 444 445 442</p>
        </polylist>
      </mesh>
    </geometry>
    <geometry id="meshId1" name="meshId1">
      <mesh>
        <source id="meshId1-positions" name="meshId1-positions">
          <float_array id="meshId1-positions-array" count="600">28.47278 -2.812011 42.8544 27.61798 -4.048721 42.85267 27.61295 -4.044884 41.88765 28.47866 -2.815754 41.87445 26.65756 -4.933374 42.85733 25.04443 -5.68076 42.86094 25.04105 -5.674629 41.87907 26.65317 -4.928087 41.88304 9.895663 -5.678545 42.86072 9.898815 -5.672283 41.87928 8.280659 -4.924904 42.85544 8.284387 -4.9194 41.8849 7.242766 -4.096025 42.85763 7.247416 -4.091642 41.94482 6.47246 -2.81867 42.8587 5.906893 -0.3343265 42.85876 5.913696 -0.3341858 41.88145 6.478474 -2.815053 41.88159 6.47325 2.130984 42.85899 6.479089 2.127469 41.88108 7.1931 3.325508 42.85606 7.197841 3.32159 41.88381 8.28908 4.239966 42.85638 9.90334 4.990438 42.86156 9.906726 4.984282 41.94091 8.293181 4.23443 41.88412 25.05248 4.987848 42.86094 25.04933 4.981578 41.87905 26.6729 4.226848 42.85194 26.66929 4.221631 41.88837 27.75055 3.4809 42.85939 27.74591 3.477689 41.87972 28.47355 2.130002 42.85764 29.04193 -0.3395717 42.85931 29.03576 -0.3394027 41.88029 28.46741 2.126554 41.88277 5.365434 -10.41769 42.83413 5.336937 -10.41096 41.89402 4.112105 -9.863928 41.89807 4.121571 -9.86814 42.8305 31.01922 -8.092257 41.87648 30.59509 -8.396719 41.87069 30.59563 -8.403249 42.85975 31.01282 -8.088367 42.86254 32.46368 -8.152643 41.95853 32.45723 9.38935 41.97159 33.19375 9.31658 42.81767 29.80129 -9.910236 41.90042 28.83057 -10.4142 41.89597 28.82677 -10.42122 42.83144 29.79796 -9.903481 42.842 35.97801 6.798223 -17.15462 35.97507 3.829952 -19.92202 35.97872 -0.267131 -14.82364 35.99084 2.145076 -13.42135 35.1394 6.790223 -17.14606 35.14106 3.821121 -19.91303 35.15463 8.753565 -14.1523 35.12331 2.819317 -12.64008 35.19433 2.151965 -13.42501 35.99982 2.812748 -12.63518 35.98146 8.747382 -14.14988 35.0891 -0.2859901 20.22231 35.22789 1.958349 17.50786 34.36552 1.952058 17.50362 34.24385 -0.2798979 20.22779 35.15961 -2.852423 -17.13153 35.16049 0.826418 -21.93603 35.14303 -0.2628283 -14.82928 35.17477 -3.423415 -20.11791 35.17242 -2.404693 -21.6551 35.98109 -2.841992 -17.13435 35.97955 -3.402326 -20.11889 33.19242 -8.092697 42.80887 30.29807 -9.300371 41.89325 30.30508 -9.302073 42.83355 -0.001108257 9.341422 42.85177 -0.001127345 9.351359 41.89225 34.63745 -8.11285 29.16068 33.3008 -8.096861 42.01529 33.29979 9.331202 42.01004 34.64906 9.344028 28.0218 33.80341 9.346597 28.02148 33.81873 -8.117786 29.15846 35.20774 9.353935 17.60517 35.39427 2.79832 14.5413 34.53267 2.805756 14.54361 34.36526 9.339291 17.60541 3.526546 -8.787691 41.89115 2.015973 -4.15096 41.87829 2.010057 -4.154838 42.85013 3.519184 -8.786758 42.83638 0.9905296 -2.506031 41.87088 35.97535 0.8301449 -21.92903 35.97789 -2.38805 -21.64486 35.14396 9.347358 -11.09955 35.97834 9.353985 -11.0977 33.92418 -7.116976 26.51136 34.75986 -7.112741 26.51632 0.9875002 -2.515411 42.85889 6.075722E-08 -2.009631 41.8649 -1.007484E-07 -2.015425 42.86562 -28.47278 -2.812011 42.8544 -28.47866 -2.815754 41.87445 -27.61295 -4.044884 41.88765 -27.61798 -4.048721 42.85267 -26.65756 -4.933374 42.85733 -26.65317 -4.928087 41.88304 -25.04105 -5.674629 41.87907 -25.04443 -5.68076 42.86094 -9.898815 -5.672283 41.87928 -9.895663 -5.678545 42.86072 -8.284387 -4.9194 41.8849 -8.280659 -4.924904 42.85544 -7.247416 -4.091642 41.94482 -7.242766 -4.096025 42.85763 -6.47246 -2.81867 42.8587 -6.478474 -2.815053 41.88159 -5.913696 -0.3341858 41.88145 -5.906893 -0.3343265 42.85876 -6.479754 2.126553 41.88189 -6.47396 2.130024 42.8582 -7.197778 3.321652 41.88374 -7.19304 3.325568 42.85612 -8.289733 4.238722 42.85519 -8.293798 4.233254 41.88534 -9.907116 4.982899 41.87963 -9.903732 4.988958 42.86038 -25.04978 4.980477 41.87988 -25.05296 4.986662 42.8601 -26.66931 4.221661 41.88834 -26.67292 4.226878 42.85197 -27.74591 3.477689 41.87972 -27.75055 3.480903 42.85939 -28.47355 2.130002 42.85764 -28.46741 2.126554 41.88277 -29.03576 -0.3394027 41.88029 -29.04193 -0.3395717 42.85931 -5.365434 -10.41769 42.83413 -4.12157 -9.86814 42.8305 -4.112105 -9.863928 41.89807 -5.336937 -10.41096 41.89402 -31.01922 -8.092257 41.87648 -31.01282 -8.088367 42.86254 -30.59563 -8.403249 42.85975 -30.59509 -8.396719 41.87069 -32.45752 9.389494 41.97174 -32.46368 -8.152642 41.95853 -33.1943 9.316542 42.81711 -29.80129 -9.910236 41.90042 -29.79796 -9.903481 42.842 -28.82677 -10.42122 42.83144 -28.83057 -10.4142 41.89597 -35.97801 6.798223 -17.15462 -35.99084 2.145076 -13.42135 -35.97872 -0.2671311 -14.82364 -35.97507 3.829952 -19.92202 -35.1394 6.790223 -17.14606 -35.14106 3.821121 -19.91303 -35.19433 2.151965 -13.42501 -35.12331 2.819317 -12.64008 -35.15463 8.753565 -14.1523 -35.99982 2.812748 -12.63518 -35.98146 8.747382 -14.14988 -35.0891 -0.2859901 20.22231 -34.24385 -0.2798979 20.22779 -34.36552 1.952058 17.50362 -35.22789 1.958349 17.50786 -35.15961 -2.852423 -17.13153 -35.14303 -0.2628283 -14.82928 -35.16049 0.826418 -21.93603 -35.17242 -2.404693 -21.6551 -35.17477 -3.423415 -20.11791 -35.98109 -2.841992 -17.13435 -35.97955 -3.402326 -20.11889 -33.19243 -8.09271 42.80884 -30.30508 -9.302073 42.83355 -30.29807 -9.300371 41.89325 -34.63745 -8.11285 29.16068 -34.64906 9.344023 28.0218 -33.2998 9.331191 42.00999 -33.3008 -8.096862 42.01527 -33.80341 9.346601 28.02148 -33.81873 -8.117786 29.15846 -35.20774 9.353934 17.60517 -34.53267 2.805757 14.54361 -35.39427 2.79832 14.5413 -34.36526 9.339291 17.60541 -3.526546 -8.787691 41.89115 -3.519184 -8.786758 42.83638 -2.010054 -4.154828 42.85013 -2.01597 -4.15095 41.87829 -0.9905298 -2.506022 41.87088 -35.97789 -2.38805 -21.64486 -35.97535 0.830145 -21.92903 -35.14396 9.347358 -11.09955 -35.97834 9.353985 -11.0977 -33.92418 -7.116976 26.51136 -34.75986 -7.112741 26.51632 -0.9875005 -2.511497 42.85889</float_array>
          <technique_common>
            <accessor count="200" offset="0" source="#meshId1-positions-array" stride="3">
              <param name="X" type="float" />
              <param name="Y" type="float" />
              <param name="Z" type="float" />
            </accessor>
          </technique_common>
        </source>
        <source id="meshId1-normals" name="meshId1-normals">
          <float_array id="meshId1-normals-array" count="600">0.6545511 -0.2675126 -0.7071066 0.5333268 -0.4642875 -0.7071065 0.5333262 -0.4642878 0.7071069 0.6545504 -0.2675128 0.7071074 0.3908074 -0.5892962 -0.7071065 0.151264 -0.6907383 -0.7071067 0.1512638 -0.6907383 0.7071067 0.3908077 -0.5892962 0.7071064 -0.1512642 -0.6907382 -0.7071068 -0.1512643 -0.6907381 0.7071067 -0.3715187 -0.6016429 -0.7071066 -0.3715186 -0.6016429 0.7071066 -0.5322185 -0.4655575 -0.7071066 -0.5322186 -0.4655574 0.7071066 -0.6622819 -0.2477554 -0.7071068 -0.7071069 8.464273E-08 -0.7071066 -0.7071068 0 0.7071068 -0.6622822 -0.2477553 0.7071065 -0.5198132 0.1936149 -0.8320501 -0.5198121 0.193615 0.8320509 -0.5375748 0.4593624 -0.7071065 -0.5375735 0.4593629 0.7071071 -0.3776091 0.5978388 -0.7071069 -0.1512641 0.690738 -0.7071069 -0.1512641 0.6907381 0.7071068 -0.3776098 0.5978388 0.7071066 0.1512655 0.6907377 -0.7071069 0.1512654 0.6907378 0.7071068 0.3525588 0.6129456 -0.7071068 0.3525591 0.6129455 0.7071067 0.5288203 0.4694136 -0.7071068 0.5288202 0.4694136 0.7071069 0.6680256 0.2318222 -0.7071071 0.5546999 0 -0.8320505 0.5547002 0 0.8320503 0.6680255 0.2318223 0.7071071 0.1456231 0.6898686 -0.709137 0.1464628 0.6938471 0.7050709 0.4801351 0.5240073 0.7034819 0.4752494 0.5186753 -0.7107137 -0.2187716 0.6724128 0.7071068 -0.5629525 0.4278846 0.7071064 -0.5629514 0.4278849 -0.7071069 -0.2187716 0.6724128 -0.7071068 0.3922323 0.8320504 0.3922321 0.1511063 -0.3939193 0.9066391 -0.1561741 -0.3123476 -0.9370426 -0.4452212 0.5493428 0.7071072 -0.1697052 0.6864405 0.7071065 -0.1697049 0.6864399 -0.7071072 -0.4452215 0.5493427 -0.7071071 -0.7071069 -0.5412554 0.4550193 -0.7071066 -0.4395354 0.5539033 -0.7071069 0.4166526 -0.5713146 -0.7071067 0.4592964 -0.5376309 0.7071067 -0.5412561 0.4550188 0.7071069 -0.4395354 0.5539029 0.7071066 -0.6550878 0.266196 0.8320505 0.5221394 -0.1872497 0.7071068 0.4592957 -0.5376314 -0.8320504 0.5221397 -0.1872496 -0.7071068 -0.6550874 0.2661963 -0.7071068 0.496729 0.5032498 -0.7071068 0.5935099 0.3843774 0.7071067 0.5935101 0.3843774 0.7071068 0.4967291 0.5032498 0.7071065 0.6155065 -0.3480693 0.7717213 -0.1272514 0.6230999 0.7071066 0.4166527 -0.571315 0.4472136 0.8769314 0.1760439 0.5441303 0.3680141 0.7539814 -0.7071068 0.6155065 -0.3480687 -0.4472134 0.8769313 0.1760442 -0.4082483 0.8164967 -0.4082483 -0.6116123 0.354867 0.7071066 -0.6116118 0.3548672 -0.7071071 -1.91727E-07 -0.1643992 -0.9863939 3.307589E-08 -0.164399 0.9863939 -0.7071068 0.6660337 0.2374852 -0.7071068 0.7071068 -3.223718E-07 -0.7071068 -0.7071068 -9.324842E-08 -0.8320503 -0.5547003 -7.315006E-08 0.8320503 -0.5547002 8.457921E-08 0.7071067 0.6660336 0.2374853 -0.8944272 -0.4472138 0 -0.7071069 0.6959449 0.1251423 0.7071068 0.695945 0.1251423 0.8944273 -0.4472136 1.524732E-08 0.6596127 0.2587666 0.7056565 0.5100242 0.2180993 0.8320505 0.5100244 0.2180993 -0.8320504 0.6569148 0.2577081 -0.7085546 0.369353 0.4138483 0.8320504 -0.7275133 -0.1716452 0.6642758 -0.4855876 0.4471397 0.7511797 0.7071066 -0.7037488 0.06883246 -0.7071066 -0.7037488 0.06883239 0.7071068 0.5233017 0.475558 -0.7071068 0.5233015 0.475558 0.3693538 0.4138481 -0.8320501 -7.172083E-07 0.6690778 0.7431924 0 0.6690778 -0.7431924 -0.654551 -0.2675126 -0.7071068 -0.6545502 -0.2675129 0.7071074 -0.5333264 -0.4642877 0.7071068 -0.5333264 -0.4642877 -0.7071068 -0.3908066 -0.5892964 -0.7071068 -0.3908079 -0.5892961 0.7071064 -0.1512641 -0.6907383 0.7071067 -0.1512634 -0.6907383 -0.7071068 0.1512642 -0.6907381 0.7071067 0.1512644 -0.6907381 -0.7071067 0.3715184 -0.601643 0.7071066 0.3715179 -0.6016431 -0.7071068 0.5322186 -0.4655574 0.7071066 0.5322177 -0.4655578 -0.707107 0.6622819 -0.2477554 -0.7071068 0.6622823 -0.2477552 0.7071064 0.7071069 0 0.7071066 0.7071068 8.464275E-08 -0.7071068 0.5198126 0.1936149 0.8320506 0.5198127 0.1936149 -0.8320505 0.5375741 0.4593627 0.7071068 0.5375742 0.4593626 -0.7071068 0.3776091 0.5978388 -0.7071069 0.3776098 0.5978388 0.7071066 0.1512641 0.6907381 0.7071068 0.1512641 0.690738 -0.7071069 -0.1512658 0.6907378 0.7071068 -0.1512657 0.6907377 -0.7071069 -0.3525599 0.6129453 0.7071065 -0.3525591 0.6129455 -0.7071067 -0.5288204 0.4694135 0.7071068 -0.5288205 0.4694135 -0.7071067 -0.6680259 0.2318221 -0.7071067 -0.6680253 0.2318223 0.7071072 -0.5547 0 0.8320504 -0.5547002 0 -0.8320503 -0.1456229 0.6898686 -0.709137 -0.4752502 0.5186751 -0.7107134 -0.4801353 0.5240072 0.7034818 -0.1464629 0.6938471 0.7050709 0.218772 0.6724128 0.7071067 0.2187716 0.6724128 -0.7071068 0.5629516 0.4278849 -0.7071068 0.5629526 0.4278845 0.7071062 -0.1511065 -0.3939192 0.9066392 -0.3922329 0.8320501 0.3922321 0.1561736 -0.3123474 -0.9370427 0.4452211 0.5493429 0.7071073 0.4452223 0.5493425 -0.7071068 0.1697055 0.6864399 -0.7071071 0.169705 0.6864405 0.7071065 0.7071069 -0.5412554 0.4550192 0.7071067 0.4592964 -0.5376309 0.7071068 0.4166527 -0.5713146 0.7071067 -0.4395353 0.5539032 -0.7071067 -0.5412561 0.4550187 -0.7071069 -0.4395356 0.5539028 -0.7071068 0.4592956 -0.5376315 -0.8320506 0.5221393 -0.1872497 -0.7071066 -0.6550878 0.266196 0.8320504 0.5221396 -0.1872496 0.7071068 -0.6550875 0.2661962 0.7071068 0.4967291 0.5032498 -0.7071068 0.496729 0.5032497 -0.7071067 0.59351 0.3843774 0.7071067 0.59351 0.3843774 -0.7071066 0.6155064 -0.3480693 -0.7071066 0.4166525 -0.5713151 -0.7717212 -0.1272515 0.6230999 -0.5441303 0.3680141 0.7539814 -0.4472136 0.8769314 0.1760439 0.7071068 0.6155065 -0.3480687 0.4472134 0.8769313 0.1760442 0.4082474 0.8164961 -0.4082504 0.6116121 0.3548671 -0.7071068 0.6116121 0.3548671 0.7071068 0.7071066 0.6660338 0.2374853 0.8320503 -0.5547002 -1.701391E-08 0.7071068 -0.7071068 -1.125906E-06 0.7071063 0.7071072 -2.223143E-06 -0.8320504 -0.5547002 6.185076E-08 -0.7071069 0.6660334 0.2374853 0.8944273 -0.4472136 2.249514E-09 -0.7071069 0.695945 0.1251423 0.7071069 0.695945 0.1251423 -0.8944273 -0.4472136 1.749683E-08 -0.6596127 0.2587666 0.7056564 -0.6569153 0.2577079 -0.7085541 -0.5100245 0.2180993 -0.8320503 -0.5100241 0.2180993 0.8320506 -0.3693535 0.4138482 0.8320503 0.4855876 0.4471397 0.7511797 0.7275133 -0.1716452 0.6642758 -0.7071066 -0.7037488 0.06883246 0.7071067 -0.7037487 0.0688324 -0.7071068 0.5233017 0.475558 0.7071068 0.5233016 0.475558 -0.369354 0.4138481 -0.8320501</float_array>
          <technique_common>
            <accessor count="200" offset="0" source="#meshId1-normals-array" stride="3">
              <param name="X" type="float" />
              <param name="Y" type="float" />
              <param name="Z" type="float" />
            </accessor>
          </technique_common>
        </source>
        <vertices id="meshId1-vertices">
          <input semantic="POSITION" source="#meshId1-positions" />
        </vertices>
        <polylist count="404" material="defaultMaterial">
          <input offset="0" semantic="VERTEX" source="#meshId1-vertices" />
          <input offset="0" semantic="NORMAL" source="#meshId1-normals" />
          <vcount>3 3 3 3 3 3 3 3 3 3 3 3 3 3 3 3 3 3 3 3 3 3 3 3 3 3 3 3 3 3 3 3 3 3 3 3 3 3 3 3 3 3 3 3 3 3 3 3 3 3 3 3 3 3 3 3 3 3 3 3 3 3 3 3 3 3 3 3 3 3 3 3 3 3 3 3 3 3 3 3 3 3 3 3 3 3 3 3 3 3 3 3 3 3 3 3 3 3 3 3 3 3 3 3 3 3 3 3 3 3 3 3 3 3 3 3 3 3 3 3 3 3 3 3 3 3 3 3 3 3 3 3 3 3 3 3 3 3 3 3 3 3 3 3 3 3 3 3 3 3 3 3 3 3 3 3 3 3 3 3 3 3 3 3 3 3 3 3 3 3 3 3 3 3 3 3 3 3 3 3 3 3 3 3 3 3 3 3 3 3 3 3 3 3 3 3 3 3 3 3 3 3 3 3 3 3 3 3 3 3 3 3 3 3 3 3 3 3 3 3 3 3 3 3 3 3 3 3 3 3 3 3 3 3 3 3 3 3 3 3 3 3 3 3 3 3 3 3 3 3 3 3 3 3 3 3 3 3 3 3 3 3 3 3 3 3 3 3 3 3 3 3 3 3 3 3 3 3 3 3 3 3 3 3 3 3 3 3 3 3 3 3 3 3 3 3 3 3 3 3 3 3 3 3 3 3 3 3 3 3 3 3 3 3 3 3 3 3 3 3 3 3 3 3 3 3 3 3 3 3 3 3 3 3 3 3 3 3 3 3 3 3 3 3 3 3 3 3 3 3 3 3 3 3 3 3 3 3 3 3 3 3 3 3 3 3 3 3 3 3 3 3 3 3 3 3 3 3 3 3 3 3 3 3 3 3 3 3 3 3 3 3 3 3 3 3 3 3 3 3 3 3 3 3</vcount>
          <p>0 1 2 2 3 0 4 5 6 6 7 4 5 8 9 9 6 5 8 10 11 11 9 8 10 12 13 13 11 10 14 15 16 16 17 14 15 18 19 19 16 15 18 20 21 21 19 18 22 23 24 24 25 22 23 26 27 27 24 23 26 28 29 29 27 26 28 30 31 31 29 28 32 33 34 34 35 32 33 0 3 3 34 33 36 37 38 38 39 36 40 41 42 42 43 40 40 44 45 45 34 40 33 32 46 47 48 49 49 50 47 7 6 48 48 47 7 49 5 4 4 50 49 51 52 53 53 54 51 55 56 52 52 51 55 55 57 58 58 59 55 60 54 59 59 58 60 57 55 51 51 61 57 62 63 64 64 65 62 66 67 56 56 68 66 66 69 70 70 67 66 71 72 69 69 66 71 73 44 40 40 43 73 41 74 75 75 42 41 48 37 36 36 49 48 31 35 45 46 76 77 77 45 46 8 5 49 49 36 8 78 79 80 80 81 78 45 82 81 81 80 45 44 83 82 82 45 44 79 78 83 83 44 79 63 62 84 63 85 86 86 64 63 64 86 87 88 89 90 90 91 88 77 92 19 72 71 93 93 94 72 72 94 70 70 69 72 56 67 93 93 52 56 52 93 71 71 53 52 53 71 66 66 68 53 58 57 95 95 57 61 61 96 95 97 65 87 87 82 97 82 87 84 84 81 82 62 98 81 81 84 62 98 62 65 65 97 98 98 78 81 83 97 82 78 98 97 97 83 78 84 96 60 60 85 84 85 60 58 58 86 85 95 96 84 84 87 95 70 94 93 93 67 70 86 58 95 95 87 86 89 92 99 99 90 89 74 41 3 3 2 74 42 75 1 1 0 42 46 73 43 43 33 46 45 35 34 43 42 0 0 33 43 40 34 3 3 41 40 46 32 30 27 29 45 28 26 46 17 89 88 88 13 17 36 39 10 10 8 36 6 9 37 37 48 6 76 20 18 45 77 24 24 27 45 76 23 22 77 21 25 76 46 26 26 23 76 77 25 24 90 99 18 18 15 90 17 16 89 92 100 101 101 99 92 100 92 77 76 99 101 85 63 84 65 64 87 99 76 18 92 89 16 16 19 92 38 88 91 91 39 38 39 91 12 12 10 39 37 9 11 11 38 37 15 14 90 12 14 17 17 13 12 91 90 14 14 12 91 13 88 38 38 11 13 20 22 25 25 21 20 76 22 20 77 19 21 30 32 35 35 31 30 1 4 7 7 2 1 75 50 4 4 1 75 74 47 50 50 75 74 47 74 2 2 7 47 28 46 30 29 31 45 60 96 61 54 53 68 68 59 54 60 61 51 51 54 60 59 68 56 56 55 59 102 103 104 104 105 102 106 107 108 108 109 106 109 108 110 110 111 109 111 110 112 112 113 111 113 112 114 114 115 113 116 117 118 118 119 116 119 118 120 120 121 119 121 120 122 122 123 121 124 125 126 126 127 124 127 126 128 128 129 127 129 128 130 130 131 129 131 130 132 132 133 131 134 135 136 136 137 134 137 136 103 103 102 137 138 139 140 140 141 138 142 143 144 144 145 142 142 136 146 146 147 142 137 148 134 149 150 151 151 152 149 107 149 152 152 108 107 151 150 106 106 109 151 153 154 155 155 156 153 157 153 156 156 158 157 157 159 160 160 161 157 162 160 159 159 154 162 161 163 153 153 157 161 164 165 166 166 167 164 168 169 158 158 170 168 168 170 171 171 172 168 173 168 172 172 174 173 175 143 142 142 147 175 145 144 176 176 177 145 152 151 138 138 141 152 132 146 135 148 146 77 77 76 148 111 138 151 151 109 111 178 179 180 180 181 178 146 180 179 179 182 146 147 146 182 182 183 147 181 147 183 183 178 181 167 184 164 167 166 185 185 186 167 166 187 185 188 189 190 190 191 188 77 120 192 174 193 194 194 173 174 174 172 171 171 193 174 158 156 194 194 170 158 156 155 173 173 194 156 155 169 168 168 173 155 160 195 161 195 196 163 163 161 195 197 182 187 187 165 197 182 179 184 184 187 182 164 184 179 179 198 164 198 197 165 165 164 198 198 179 178 183 182 197 178 183 197 197 198 178 184 186 162 162 196 184 186 185 160 160 162 186 195 187 184 184 196 195 171 170 194 194 193 171 185 187 195 195 160 185 191 190 199 199 192 191 177 104 103 103 145 177 144 102 105 105 176 144 148 137 143 143 175 148 146 136 135 143 137 102 102 144 143 142 145 103 103 136 142 148 133 134 128 146 130 131 148 129 117 114 188 188 191 117 138 111 113 113 139 138 108 152 141 141 110 108 76 121 123 146 128 126 126 77 146 76 124 127 77 125 122 76 127 129 129 148 76 77 126 125 190 119 121 121 199 190 117 191 118 192 199 101 101 100 192 100 77 192 76 101 199 186 184 167 165 187 166 199 121 76 192 120 118 118 191 192 140 139 189 189 188 140 139 113 115 115 189 139 141 140 112 112 110 141 119 190 116 115 114 117 117 116 115 189 115 116 116 190 189 114 112 140 140 188 114 123 122 125 125 124 123 76 123 124 77 122 120 133 132 135 135 134 133 105 104 107 107 106 105 176 105 106 106 150 176 177 176 150 150 149 177 149 107 104 104 177 149 131 133 148 130 146 132 162 163 196 154 159 169 169 155 154 162 154 153 153 163 162 159 157 158 158 169 159 79 73 46 46 80 79 73 79 44 45 80 46 146 148 180 175 147 181 180 148 175 175 181 180</p>
        </polylist>
      </mesh>
    </geometry>
    <geometry id="meshId2" name="meshId2">
      <mesh>
        <source id="meshId2-positions" name="meshId2-positions">
          <float_array id="meshId2-positions-array" count="24">5.517714 -6.343033 42.55441 29.58687 -6.343033 42.55441 29.58687 5.49691 42.55439 5.517714 5.49691 42.55439 -5.517714 -6.343033 42.55441 -5.517714 5.49691 42.55439 -29.58687 5.49691 42.55439 -29.58687 -6.343033 42.55441</float_array>
          <technique_common>
            <accessor count="8" offset="0" source="#meshId2-positions-array" stride="3">
              <param name="X" type="float" />
              <param name="Y" type="float" />
              <param name="Z" type="float" />
            </accessor>
          </technique_common>
        </source>
        <source id="meshId2-normals" name="meshId2-normals">
          <float_array id="meshId2-normals-array" count="24">0 1.933133E-06 1 0 1.933133E-06 1 0 1.933133E-06 1 0 1.933133E-06 1 0 1.933133E-06 1 0 1.933133E-06 1 0 1.933133E-06 1 0 1.933133E-06 1</float_array>
          <technique_common>
            <accessor count="8" offset="0" source="#meshId2-normals-array" stride="3">
              <param name="X" type="float" />
              <param name="Y" type="float" />
              <param name="Z" type="float" />
            </accessor>
          </technique_common>
        </source>
        <source id="meshId2-tex0" name="meshId2-tex0">
          <float_array id="meshId2-tex0-array" count="16">0.4830205 0.3315563 0.8363727 0.3315563 0.8363727 0.5069278 0.4830205 0.5069278 0.4830205 0.6689491 0.4830205 0.8443207 0.8363727 0.8443207 0.8363727 0.6689491</float_array>
          <technique_common>
            <accessor count="8" offset="0" source="#meshId2-tex0-array" stride="2">
              <param name="S" type="float" />
              <param name="T" type="float" />
            </accessor>
          </technique_common>
        </source>
        <vertices id="meshId2-vertices">
          <input semantic="POSITION" source="#meshId2-positions" />
        </vertices>
        <polylist count="4" material="defaultMaterial">
          <input offset="0" semantic="VERTEX" source="#meshId2-vertices" />
          <input offset="0" semantic="NORMAL" source="#meshId2-normals" />
          <input offset="0" semantic="TEXCOORD" source="#meshId2-tex0" />
          <vcount>3 3 3 3</vcount>
          <p>0 1 2 2 3 0 4 5 6 6 7 4</p>
        </polylist>
      </mesh>
    </geometry>
  </library_geometries>
  <library_controllers />
  <library_visual_scenes>
    <visual_scene id="RootNode" name="RootNode">
      <node id="m_frame" sid="m_frame" name="m_frame" type="NODE">
        <matrix sid="matrix">1 0 0 0 0 1 0 0 0 0 1 0 0 0 0 1</matrix>
        <instance_geometry url="#meshId0">
          <bind_material>
            <technique_common>
              <instance_material symbol="defaultMaterial" target="#frame_mt">
                <bind_vertex_input semantic="CHANNEL0" input_semantic="TEXCOORD" input_set="0" />
              </instance_material>
            </technique_common>
          </bind_material>
        </instance_geometry>
      </node>
      <node id="m_frame1" sid="m_frame1" name="m_frame1" type="NODE">
        <matrix sid="matrix">1 0 0 0 0 1 0 0 0 0 1 0 0 0 0 1</matrix>
        <instance_geometry url="#meshId1">
          <bind_material>
            <technique_common>
              <instance_material symbol="defaultMaterial" target="#acc008_03_outline" />
            </technique_common>
          </bind_material>
        </instance_geometry>
      </node>
      <node id="m_lens" sid="m_lens" name="m_lens" type="NODE">
        <matrix sid="matrix">1 0 0 0 0 1 0 0 0 0 1 0 0 0 0 1</matrix>
        <instance_geometry url="#meshId2">
          <bind_material>
            <technique_common>
              <instance_material symbol="defaultMaterial" target="#lens_mt">
                <bind_vertex_input semantic="CHANNEL0" input_semantic="TEXCOORD" input_set="0" />
              </instance_material>
            </technique_common>
          </bind_material>
        </instance_geometry>
      </node>
    </visual_scene>
  </library_visual_scenes>
  <scene>
    <instance_visual_scene url="#RootNode" />
  </scene>
</COLLADA>